<svg width="244" height="35" viewBox="0 0 244 35" fill="none" xmlns="http://www.w3.org/2000/svg">
<path fill-rule="evenodd" clip-rule="evenodd" d="M0.299805 7.08691H24.0847V10.5895H7.20723V18.4171H23.2001V21.9197H7.20723V30.734H24.5558V34.2322H0.299805V7.08691Z" fill="white"/>
<path fill-rule="evenodd" clip-rule="evenodd" d="M42.9091 30.7342H42.7891C41.9046 32.1522 39.6021 34.668 34.4682 34.668C30.3388 34.668 26.854 32.7789 26.854 28.4895V15.5059H33.4058V26.2093C33.4058 30.023 33.997 30.5787 36.2995 30.5787C40.6644 30.5787 42.9091 26.6049 42.9091 23.6134V15.5103H49.461V34.2368H42.9091V30.7342Z" fill="white"/>
<path fill-rule="evenodd" clip-rule="evenodd" d="M53.71 7.08691H60.2573V22.6664L69.3473 15.5056H77.1971L66.8092 23.6132L78.1394 34.2322H70.2896L60.3774 24.7911H60.2573V34.2322H53.71V7.08691Z" fill="white"/>
<path fill-rule="evenodd" clip-rule="evenodd" d="M93.3636 32.0721H93.2436C92.3591 33.29 90.4121 34.668 85.9272 34.668C81.2067 34.668 77.6641 32.7789 77.6641 29.7519C77.6641 23.5378 89.4654 23.4978 93.3636 23.4178V21.5687C93.3636 19.7196 92.6569 18.1461 89.4076 18.1461C85.8072 18.1461 85.1004 19.7596 85.1004 21.0175H78.7264C78.7264 17.4394 82.269 15.0791 89.4076 15.0791C96.5462 15.0791 99.6176 17.0838 99.6176 20.902V34.2412H93.3636V32.0766V32.0721ZM87.523 31.6009C91.7723 31.6009 93.3636 28.5339 93.3636 25.9736C89.1143 25.9736 84.0381 26.8404 84.0381 29.3563C84.0381 30.8097 85.2783 31.5965 87.5185 31.5965L87.523 31.6009Z" fill="white"/>
<path fill-rule="evenodd" clip-rule="evenodd" d="M103.751 15.5059H110.303V19.0085H110.423C111.308 17.5905 113.553 15.0747 118.744 15.0747C122.874 15.0747 126.358 16.9638 126.358 21.2532V34.2368H119.807V23.5334C119.807 19.7152 119.215 19.1685 116.913 19.1685C112.486 19.1685 110.303 23.1823 110.303 26.1337V34.2368H103.751V15.5103V15.5059Z" fill="white"/>
<path fill-rule="evenodd" clip-rule="evenodd" d="M146.654 30.7342H146.534C145.649 32.1522 143.347 34.668 138.213 34.668C134.083 34.668 130.599 32.7789 130.599 28.4895V15.5059H137.15V26.2093C137.15 30.023 137.742 30.5787 140.04 30.5787C144.405 30.5787 146.649 26.6049 146.649 23.6134V15.5103H153.201V34.2368H146.649V30.7342H146.654Z" fill="white"/>
<path fill-rule="evenodd" clip-rule="evenodd" d="M163.531 17.7508H163.651C164.536 16.8084 166.603 15.0749 170.91 15.0749C177.635 15.0749 180.587 18.8887 180.587 24.8716C180.587 30.1033 177.871 34.6682 168.723 34.6682C161.344 34.6682 156.979 31.8768 156.979 26.2895V7.0918H163.531V17.7552V17.7508ZM168.723 31.6012C172.915 31.6012 173.621 27.943 173.621 24.8716C173.621 21.489 173.088 17.8663 168.723 17.8663C164.767 17.8663 163.531 21.7201 163.531 24.8716C163.531 29.5521 164.594 31.6012 168.723 31.6012Z" fill="white"/>
<path fill-rule="evenodd" clip-rule="evenodd" d="M197.642 32.0721H197.522C196.637 33.29 194.691 34.668 190.206 34.668C185.485 34.668 181.942 32.7789 181.942 29.7519C181.942 23.5378 193.744 23.4978 197.642 23.4178V21.5687C197.642 19.7196 196.935 18.1461 193.686 18.1461C190.086 18.1461 189.379 19.7596 189.379 21.0175H183.005C183.005 17.4394 186.547 15.0791 193.686 15.0791C200.825 15.0791 203.896 17.0838 203.896 20.902V34.2412H197.642V32.0766V32.0721ZM191.801 31.6009C196.051 31.6009 197.642 28.5339 197.642 25.9736C193.393 25.9736 188.316 26.8404 188.316 29.3563C188.316 30.8097 189.557 31.5965 191.797 31.5965L191.801 31.6009Z" fill="white"/>
<path fill-rule="evenodd" clip-rule="evenodd" d="M219.351 4.70021C219.351 7.29161 217.249 9.39406 214.657 9.39406C212.066 9.39406 209.963 7.29161 209.963 4.70021C209.963 2.10881 212.066 0.00634766 214.657 0.00634766C217.249 0.00634766 219.351 2.10881 219.351 4.70021Z" fill="white"/>
<path fill-rule="evenodd" clip-rule="evenodd" d="M230.45 4.9004C230.45 7.4918 228.347 9.59426 225.756 9.59426C223.164 9.59426 221.062 7.4918 221.062 4.9004C221.062 2.309 223.164 0.206543 225.756 0.206543C228.347 0.206543 230.45 2.309 230.45 4.9004Z" fill="white"/>
<path fill-rule="evenodd" clip-rule="evenodd" d="M238.909 12.2344C238.909 14.8258 236.806 16.9282 234.219 16.9282C231.632 16.9282 229.525 14.8258 229.525 12.2344C229.525 9.64298 231.628 7.54053 234.219 7.54053C236.811 7.54053 238.909 9.64298 238.909 12.2344Z" fill="white"/>
<path fill-rule="evenodd" clip-rule="evenodd" d="M240.695 23.0713C240.695 25.6627 238.593 27.7652 236.001 27.7652C233.41 27.7652 231.308 25.6627 231.308 23.0713C231.308 20.4799 233.41 18.3774 236.001 18.3774C238.593 18.3774 240.695 20.4799 240.695 23.0713Z" fill="white"/>
<path fill-rule="evenodd" clip-rule="evenodd" d="M229.685 20.1197C229.685 25.5203 225.307 29.903 219.906 29.903C214.506 29.903 210.127 25.5247 210.127 20.1197C210.127 14.7146 214.506 10.3408 219.906 10.3408C225.307 10.3408 229.685 14.7191 229.685 20.1197Z" fill="white"/>
<path fill-rule="evenodd" clip-rule="evenodd" d="M242.238 15.0703C242.531 15.0703 242.816 15.1459 243.096 15.297C243.376 15.4481 243.594 15.6615 243.749 15.9415C243.905 16.2216 243.98 16.5105 243.98 16.8127C243.98 17.115 243.905 17.3995 243.749 17.6795C243.594 17.9551 243.38 18.1729 243.105 18.324C242.829 18.4751 242.54 18.5551 242.238 18.5551C241.936 18.5551 241.647 18.4796 241.371 18.324C241.096 18.1729 240.878 17.9551 240.727 17.6795C240.576 17.4039 240.496 17.115 240.496 16.8127C240.496 16.5105 240.576 16.2171 240.731 15.9415C240.887 15.6615 241.105 15.4481 241.385 15.297C241.665 15.1459 241.949 15.0703 242.242 15.0703H242.238ZM242.238 15.3592C241.994 15.3592 241.754 15.4215 241.522 15.5459C241.291 15.6704 241.109 15.8526 240.98 16.0838C240.851 16.3193 240.785 16.5594 240.785 16.8127C240.785 17.0661 240.851 17.3061 240.976 17.5373C241.105 17.7684 241.282 17.9462 241.514 18.0751C241.745 18.204 241.985 18.2662 242.238 18.2662C242.491 18.2662 242.731 18.204 242.963 18.0751C243.194 17.9462 243.371 17.7684 243.5 17.5373C243.629 17.3061 243.692 17.0661 243.692 16.8127C243.692 16.5594 243.625 16.3193 243.496 16.0838C243.367 15.8482 243.185 15.6704 242.954 15.5459C242.723 15.4215 242.483 15.3592 242.238 15.3592ZM241.469 17.7773V15.9015H242.118C242.34 15.9015 242.5 15.9193 242.598 15.9549C242.696 15.9904 242.776 16.0482 242.834 16.1371C242.891 16.2216 242.923 16.3149 242.923 16.4127C242.923 16.5505 242.874 16.6705 242.771 16.7727C242.674 16.875 242.54 16.9327 242.376 16.9461C242.443 16.9727 242.496 17.0083 242.536 17.0439C242.611 17.1194 242.705 17.2394 242.816 17.4128L243.047 17.7773H242.683L242.514 17.4839C242.38 17.2528 242.274 17.1061 242.194 17.0483C242.136 17.0039 242.056 16.9861 241.949 16.9816H241.771V17.7773H241.469ZM241.771 16.7194H242.149C242.331 16.7194 242.451 16.6927 242.518 16.6394C242.585 16.586 242.616 16.5194 242.616 16.4305C242.616 16.3771 242.598 16.3238 242.567 16.2838C242.536 16.2393 242.491 16.2082 242.434 16.186C242.376 16.1638 242.274 16.1549 242.122 16.1549H241.771V16.7194Z" fill="white"/>
</svg>
