<svg width="179" height="95" viewBox="0 0 179 95" fill="none" xmlns="http://www.w3.org/2000/svg">
<path d="M12.6252 66.5516C11.937 67.0547 11.2486 67.5579 10.5556 68.0515C10.2091 68.2983 10.1427 68.6591 10.1427 69.0341C10.1427 69.3426 10.1616 69.6511 10.081 69.9549C9.98602 70.3252 9.89113 70.7286 9.41646 70.7144C9.04622 70.7002 9.09842 71.1511 8.80412 71.1748C8.1918 71.0846 8.07787 71.5593 7.9687 71.9675C7.78358 72.6748 7.86902 73.3678 8.20128 74.0276C8.22976 74.6162 8.74244 74.9769 8.9513 75.6367C7.59374 74.7348 6.11746 75.1336 4.72668 74.9105C3.90075 74.7776 3.71093 74.6257 3.8201 73.776C3.8913 73.2349 3.83431 72.7222 3.66817 72.2096C3.57799 71.939 3.45462 71.8394 3.1176 71.939C2.4673 72.1337 2.48624 72.0814 2.23467 71.4169C2.02106 70.8521 2.03536 70.3347 2.29168 69.7888C2.51952 69.3094 2.69992 68.811 2.90877 68.3221C3.14136 67.7667 3.31217 67.2351 3.07484 66.6085C2.88497 66.1196 2.99887 65.5975 3.40708 65.2272C4.04314 64.6529 4.13339 63.8839 4.18085 63.1197C4.22357 62.3982 4.25208 61.7052 4.68403 61.0739C4.86915 60.8033 4.86435 60.4378 4.62701 60.1957C3.7821 59.3223 3.91029 58.2354 4.06219 57.2148C4.16661 56.4838 3.94352 55.7576 4.18085 55.0408C4.49888 54.0868 4.07638 53.1327 4.13809 52.1738C4.16657 51.6897 4.11443 51.2103 4.4467 50.7403C4.64606 50.4603 4.59385 49.9666 4.57011 49.5727C4.53689 49.0648 4.69828 48.7277 5.17295 48.5379C5.69509 48.329 5.75206 47.973 5.53846 47.4794C5.1872 46.6677 5.17767 45.7801 5.02578 44.9256C4.90711 44.2611 5.39599 43.9383 5.82319 43.6678C6.17919 43.4399 6.31689 43.1931 6.22195 42.8324C6.0843 42.3055 6.2362 41.7928 6.2267 41.2754C6.2267 41.0571 6.21723 40.8387 6.36438 40.6489C6.91024 39.9369 6.8105 39.2011 6.41652 38.4749C6.27412 38.2091 6.24086 37.9385 6.2551 37.6585C6.27883 37.1458 6.20298 36.6284 6.00362 36.187C5.59066 35.2851 5.9181 34.5541 6.39277 33.8421C6.57789 33.5668 6.73459 33.2678 6.69662 32.9735C6.55422 31.8723 6.92918 30.9656 7.61745 30.1492C8.02567 29.6603 8.01146 28.8771 8.71871 28.5876C8.83263 28.5401 8.86582 28.3787 8.79462 28.26C8.5383 27.8043 8.62375 27.2727 8.56679 26.8028C8.46236 25.9579 8.68066 25.0465 9.46861 24.5339C10.38 23.9405 10.7788 23.1621 10.7218 22.1083C10.7076 21.833 10.7882 21.6194 11.0493 21.4913C11.1347 21.4533 11.2581 21.4058 11.2771 21.3394C11.5382 20.39 12.3594 20.6179 12.9812 20.6036C13.4939 20.5941 13.8784 20.9834 14.073 21.5007C14.111 21.6052 14.1157 21.7523 14.2818 21.7903C14.4527 21.7761 14.5381 21.6147 14.5808 21.4818C14.8561 20.6131 15.4495 20.4897 16.2469 20.6843C16.508 20.746 16.6979 20.803 16.864 21.0261C17.3244 21.6431 17.8133 22.1843 18.4968 22.6257C19.0569 22.9865 19.5458 23.575 20.049 24.0782C20.3148 24.344 20.5901 24.4817 20.9698 24.3535C21.3923 24.2111 21.7198 24.3203 22.0758 24.6288C22.56 25.0465 23.2625 25.1225 23.7182 25.6588C24.0267 26.0196 24.1359 26.2712 23.8844 26.7079C23.5141 27.3439 23.0917 27.9705 22.954 28.7679C24.1027 28.7442 25.1565 29.2189 26.2957 29.01C26.7466 28.9246 27.1549 28.9103 27.3685 28.4262C27.4444 28.2553 27.5582 28.1034 27.7434 28.0179C28.1943 27.8091 28.332 27.4199 28.408 26.9594C28.4412 26.7553 28.2893 26.3376 28.6691 26.3803C28.9918 26.4183 29.381 26.4088 29.6041 26.855C29.8605 27.3677 29.6326 27.8755 29.7276 28.3882C29.8415 29.0242 29.1295 29.1714 28.6691 29.3992C27.5204 29.9641 26.5093 30.6666 26.0014 31.9055C25.8637 32.2378 25.6027 32.4656 25.3131 32.6602C24.4302 33.2535 24.0599 34.1459 23.7229 35.1095C23.3527 36.1775 23.2008 37.2408 23.1201 38.361C23.0726 38.9923 23.0063 39.6189 22.973 40.2597C22.9493 40.7865 23.1628 41.0049 23.5141 41.2232C23.7514 41.3704 24.022 41.4653 24.2641 41.6077C24.8527 41.94 24.9096 42.1014 24.7008 42.8039C24.5299 43.3877 24.6058 43.701 25.1754 43.9431C25.5979 44.1235 25.7498 44.4462 25.5932 44.731C24.9809 45.8418 24.6296 47.1946 23.329 47.7547C21.8006 48.4097 20.1867 48.7467 18.5111 48.7515C18.1266 48.7515 17.8323 48.5189 17.557 48.3338C17.4763 48.4429 17.4383 48.4714 17.4431 48.4904C17.7658 49.7388 17.7706 49.772 17.5332 50.9397C17.5095 51.0584 17.4479 51.2103 17.5001 51.2957C17.7279 51.6707 17.7469 52.0125 17.3862 52.2925C16.9922 52.5963 16.5887 52.8906 16.0238 52.7814C15.3213 52.6485 14.652 52.3969 14.016 52.1026C13.7312 51.9697 13.6979 52.1026 13.6315 52.2261C13.4891 52.4871 13.5081 52.7909 13.6315 53.0425C13.7739 53.3415 13.7786 53.6358 13.7739 53.9538C13.7644 54.4617 14.334 55.0171 14.8466 55.0171C15.0982 55.0171 15.0175 54.8842 14.9748 54.7133C14.9416 54.5804 15.1315 54.5662 15.2502 54.5472C16.0808 55.0361 16.0333 55.5203 15.0982 56.0614C15.0033 55.9807 14.8751 55.919 14.8181 55.8146C14.4716 55.2022 14.4764 55.1975 13.9306 55.7291C14.1774 55.8857 14.4195 56.0424 14.6521 56.1943C14.6188 56.2655 14.6093 56.3035 14.5903 56.3177C14.5144 56.3699 14.4337 56.4126 14.3577 56.4696C13.7834 56.8778 13.3372 57.2955 13.5508 58.1452C13.6552 58.5629 13.7407 59.161 13.1332 59.4553C12.986 59.5265 12.9433 59.6926 12.9955 59.8635C13.0999 60.1957 12.8958 60.2385 12.6442 60.2242C11.8231 60.1768 11.2676 60.6277 10.7835 61.2115C10.4749 61.3967 10.3896 61.7527 10.2756 62.0327C10.1285 62.4029 9.9766 62.8824 10.513 63.1577C10.7028 63.357 10.9307 63.5374 11.0778 63.7653C11.4101 64.2969 11.8325 64.5485 12.4733 64.3776C12.6869 64.3206 12.8103 64.4772 12.8626 64.6814C12.8483 65.3174 12.5825 65.925 12.649 66.5705L12.6252 66.5516Z" fill="#232323"/>
<path d="M15.0694 56.0426C16.0045 55.5015 16.052 55.0173 15.2214 54.5284C15.3258 54.3765 15.4824 54.2626 15.5156 54.0632C15.5868 53.6598 15.8859 53.5079 16.2371 53.4652C16.8162 53.3987 17.3193 53.1424 17.7798 52.8244C18.226 52.5158 18.6152 52.1693 18.3067 51.5095C18.1833 51.2437 18.2023 50.8877 18.3115 50.5839C18.4539 50.1994 18.639 49.9716 19.1421 49.8624C20.9601 49.4684 22.8065 49.0982 24.4489 48.1394C24.8856 47.8831 25.1894 47.603 25.3128 47.0239C25.4552 46.3404 25.8681 45.7043 26.2194 45.0778C26.4567 44.6553 26.2526 44.2946 26.2051 43.9006C26.1577 43.5208 26.1815 43.1364 25.6641 43.0604C25.46 43.0272 25.4362 42.8563 25.5407 42.7044C25.9631 42.0968 25.4979 41.7076 25.1799 41.3136C24.9236 40.9956 24.5485 40.8152 24.1736 40.6396C23.528 40.3406 23.3429 40.0273 23.6277 39.4197C24.017 38.5985 23.9553 37.7157 24.1404 36.8802C24.4347 35.5559 24.5771 34.1082 25.8113 33.1636C26.3761 32.7316 26.884 32.2237 27.1877 31.5355C27.4393 30.9706 28.0089 30.6858 28.5168 30.382C29.001 30.0972 29.4899 29.8124 30.0025 29.5846C30.4867 29.371 30.7003 28.939 30.6386 28.5356C30.5199 27.8093 30.5199 27.0451 30.1212 26.3711C29.9171 26.0293 29.7035 25.7967 29.2621 25.7493C28.6498 25.6828 28.0516 25.5167 27.3918 25.3838C27.2874 26.034 27.8096 26.7603 27.3112 27.1922C26.9314 27.5198 26.6656 28.0704 26.2004 28.1748C25.5786 28.3125 24.8904 28.3125 24.2781 27.8948C24.373 27.3346 24.7669 26.9074 25.0137 26.409C25.1371 26.1622 25.1656 25.9818 24.9236 25.7635C24.278 25.1702 23.756 24.4344 22.9822 24.0025C22.5455 23.7604 22.5408 23.4566 22.6262 23.0721C22.9348 21.7051 23.248 20.3428 23.5613 18.9757C24.8667 13.3034 26.1768 7.63115 27.4821 1.9636C27.615 1.38925 27.7526 0.814903 27.9045 0.183594C28.569 0.719969 28.9251 1.42723 29.376 2.04904C33.2446 7.39381 37.0893 12.7528 40.9389 18.1118C41.3424 18.6719 41.6841 19.2843 42.1493 19.7779C42.6382 20.2953 42.548 20.7225 42.2537 21.2826C41.2189 23.243 40.2317 25.2319 39.2254 27.2065C36.61 32.3234 33.9945 37.4403 31.3696 42.5525C28.3317 48.4716 25.2844 54.386 22.2512 60.3051C19.9443 64.805 17.6422 69.3143 15.359 73.8237C15.0885 74.3601 14.8464 74.6876 14.1296 74.6923C13.261 74.6971 12.3875 74.792 11.4952 74.7635C11.4002 74.849 11.424 74.9819 11.4478 75.1005C11.5285 75.4755 11.5569 75.8031 11.0253 75.8126C10.8496 75.8126 10.731 75.9027 10.7453 76.1021C10.7595 76.2967 10.8971 76.3632 11.0633 76.3632C11.2721 76.3632 11.4763 76.553 11.6851 76.3727L11.6709 76.3584C11.5142 76.6765 11.7468 76.7904 11.9462 76.6907C12.2975 76.5246 12.6439 76.591 12.9952 76.5578L12.9857 76.5483C12.8813 76.7144 12.9762 76.8663 13.1091 76.8806C13.3085 76.9043 13.4176 76.7619 13.3748 76.5435L13.3607 76.5578C13.5601 76.6575 13.6786 76.4154 13.9777 76.4534C13.4033 77.5783 12.8481 78.6701 12.2927 79.7618C12.1503 80.0371 11.9366 79.9801 11.7515 79.833C11.5284 79.6621 11.329 79.4628 11.1297 79.2682C10.973 79.1163 10.8544 78.8647 10.674 78.8125C9.85757 78.5704 10.0095 78.0672 10.1567 77.4359C11.0016 73.8759 11.8038 70.3017 12.6154 66.7321C12.6297 66.6704 12.6154 66.6087 12.6202 66.547C12.5537 65.9015 12.8195 65.2939 12.8338 64.6578C13.185 64.7528 13.1471 64.487 13.1945 64.2829C13.8163 61.5345 14.4381 58.7862 15.0647 56.0379L15.0694 56.0426Z" fill="#656565"/>
<path d="M161.154 46.8387C159.051 46.8387 156.953 46.8625 154.855 46.8245C154.243 46.8102 153.963 47.0381 153.778 47.5887C152.824 50.3892 151.846 53.1755 150.877 55.9713C150.656 56.6074 150.219 56.927 149.567 56.9302C148.158 56.9302 146.748 56.9302 145.333 56.9302C144.427 56.9302 144.393 56.8685 144.702 56.0378C145.865 52.886 147.028 49.7295 148.191 46.5777C150.588 40.0937 152.985 33.6097 155.377 27.1257C156.099 25.1701 156.83 23.2145 157.528 21.2446C157.698 20.7557 157.945 20.5421 158.477 20.5516C160.233 20.5753 161.989 20.5753 163.746 20.5516C164.263 20.5468 164.515 20.7367 164.704 21.2303C166.556 26.091 168.44 30.9373 170.31 35.7884C172.897 42.505 175.475 49.2168 178.057 55.9334C178.114 56.0805 178.176 56.2229 178.233 56.3653C178.389 56.7546 178.28 56.9349 177.834 56.9349C176.078 56.9254 174.321 56.9159 172.565 56.9397C172.1 56.9444 171.986 56.6644 171.863 56.3321C171.226 54.6091 170.59 52.886 169.959 51.1582C169.508 49.9288 169.043 48.7042 168.611 47.47C168.44 46.9859 168.174 46.815 167.643 46.8197C165.478 46.853 163.318 46.834 161.154 46.834V46.8387ZM166.736 41.8927C166.736 41.8927 166.708 41.7835 166.679 41.6981C165.773 39.1918 164.866 36.6903 163.955 34.1841C163.157 31.9911 162.284 29.8266 161.586 27.6004C161.543 27.4722 161.505 27.3393 161.42 27.2254C161.334 27.1115 161.211 27.0308 161.073 27.0403C160.95 27.0498 160.845 27.1352 160.774 27.2349C160.703 27.3346 160.67 27.458 160.637 27.5719C159.896 30.0402 159.004 32.4753 158.145 34.9056C157.414 37.0463 156.683 39.1871 155.952 41.3278C155.714 42.0256 155.743 42.0588 156.479 42.0636C159.74 42.0731 162.996 42.0778 166.257 42.0825C166.409 42.0825 166.57 42.111 166.736 41.8832V41.8927Z" fill="white"/>
<path d="M145.831 20.6796C145.404 21.8758 144.982 23.1004 144.531 24.3156C143.225 27.8519 141.906 31.3787 140.605 34.9102C139.134 38.9117 137.676 42.9226 136.205 46.9288C135.08 49.9904 133.946 53.0473 132.811 56.1089C132.512 56.9206 132.512 56.9253 131.7 56.9301C130.039 56.9301 128.378 56.9063 126.716 56.9396C126.142 56.9491 125.9 56.7402 125.71 56.2133C123.996 51.5331 122.25 46.8623 120.522 42.1869C117.978 35.2947 115.448 28.3977 112.908 21.5055C112.875 21.4154 112.818 21.3394 112.79 21.2492C112.609 20.6654 112.676 20.5705 113.35 20.5657C114.418 20.5562 115.481 20.561 116.549 20.5562C116.739 20.5562 116.924 20.5562 117.114 20.5562C119.288 20.5894 118.77 20.2145 119.492 22.246C120.997 26.5038 122.468 30.7711 123.916 35.0478C125.606 40.0271 127.262 45.0206 128.938 50.0047C129.019 50.242 129.104 50.4746 129.189 50.7262C129.626 50.5932 129.564 50.1518 129.645 49.886C131.596 43.5871 133.808 37.3737 135.915 31.1271C137.012 27.8804 138.151 24.6526 139.271 21.4154C139.57 20.5515 139.575 20.5515 140.43 20.5515C142.029 20.5515 143.629 20.5515 145.228 20.5515C145.413 20.5515 145.603 20.504 145.831 20.6749V20.6796Z" fill="white"/>
<path d="M55.3548 38.7741C55.3548 33.1018 55.3548 27.4247 55.3548 21.7525C55.3548 21.629 55.3548 21.5009 55.3548 21.3775C55.3691 20.5658 55.369 20.561 56.2187 20.561C63.9937 20.561 71.7736 20.561 79.5487 20.561C80.3651 20.561 80.3699 20.5658 80.3746 21.368C80.3746 22.5926 80.3746 23.8125 80.3746 25.0372C80.3746 25.8631 80.3747 25.7729 79.5867 25.7729C74.0995 25.7729 68.6123 25.7729 63.1251 25.7824C62.6077 25.7824 61.9527 25.5451 61.6014 25.9438C61.2977 26.2903 61.5065 26.9121 61.5018 27.4058C61.4875 30.0686 61.4875 32.7363 61.4923 35.3992C61.4923 36.1017 61.5065 36.1112 62.2138 36.1112C66.9795 36.1112 71.7451 36.1112 76.5107 36.1112C76.7291 36.1112 76.9523 36.1207 77.1706 36.1112C77.5456 36.0922 77.7497 36.2061 77.7449 36.6381C77.7307 38.0478 77.7307 39.4576 77.7449 40.8674C77.7449 41.2186 77.6405 41.399 77.2655 41.3753C77.0472 41.361 76.8289 41.3753 76.6058 41.3753C71.9018 41.3753 67.1979 41.3753 62.4939 41.3753C62.2755 41.3753 62.0571 41.3753 61.834 41.3753C61.6014 41.3753 61.5018 41.4939 61.497 41.7218C61.497 42.035 61.4828 42.3483 61.4828 42.6616C61.4828 47.0808 61.4828 51.4999 61.4828 55.9191C61.4828 56.9017 61.4828 56.9112 60.5097 56.9207C59.0999 56.9302 57.6854 56.9254 56.2757 56.9207C55.3548 56.9207 55.3501 56.9159 55.3501 55.9808C55.3501 50.2468 55.3501 44.5081 55.3501 38.7741H55.3548Z" fill="white"/>
<path d="M91.1733 45.2057C91.2588 46.7911 91.5293 48.31 92.2556 49.7198C93.2856 51.7039 94.8378 52.919 97.1019 53.275C98.9769 53.5693 100.705 53.3083 102.304 52.302C103.239 51.7134 103.871 50.8732 104.108 49.7862C104.227 49.2404 104.493 49.0552 105.067 49.0742C106.69 49.1217 108.318 49.0885 110.032 49.0885C109.685 51.3953 108.684 53.275 106.961 54.7275C105.015 56.3651 102.722 57.1199 100.202 57.4141C97.9231 57.68 95.7111 57.4996 93.5419 56.8588C89.455 55.6484 86.8871 52.8858 85.7384 48.8369C84.7463 45.3386 84.7463 41.7975 85.838 38.3087C87.1624 34.0937 89.963 31.3691 94.3014 30.415C97.6336 29.6793 100.975 29.8027 104.094 31.3074C107.06 32.7409 108.945 35.1807 109.894 38.323C110.473 40.2454 110.673 42.2342 110.663 44.2421C110.663 45.1107 110.654 45.1155 109.776 45.1155C103.909 45.1155 98.0465 45.1155 92.1796 45.1155C91.8425 45.1155 91.4913 45.0395 91.1686 45.2057H91.1733ZM97.9754 41.1235C99.8835 41.1283 101.792 41.133 103.705 41.1235C104.559 41.1235 104.587 41.114 104.45 40.2311C104.364 39.6805 104.241 39.1299 104.056 38.603C103.358 36.6047 102.195 35.0193 100.088 34.3073C99.2427 34.0225 98.3741 34.0177 97.5007 34.032C95.6637 34.0557 94.1827 34.8247 93.0482 36.2392C92.1131 37.4069 91.6527 38.7929 91.3869 40.2501C91.235 41.0618 91.2445 41.114 92.0656 41.1188C94.0355 41.1283 96.0102 41.1188 97.9801 41.1188L97.9754 41.1235Z" fill="white"/>
<path d="M9.11283 79.9376C9.09859 79.8142 9.08442 79.6908 9.06543 79.5673C9.20783 79.4677 9.22685 79.3205 9.21736 79.1639C9.20786 78.8743 9.38343 78.8031 9.62551 78.7984C9.95777 78.8933 10.1998 79.0784 10.4467 79.3395C10.9973 79.9091 11.6001 80.4407 12.2362 80.9154C12.9862 81.4755 13.1333 81.4186 13.5843 80.6306C15.9102 76.5627 18.236 72.4948 20.5666 68.4221C26.2152 58.549 31.8685 48.6759 37.5218 38.7981C37.9205 38.1003 38.3192 37.4073 38.8081 36.5576C39.335 38.0813 39.805 39.4483 40.2749 40.8201C41.3761 44.0336 42.4536 47.2519 43.5976 50.4512C43.8254 51.0967 43.7636 51.4859 43.2795 51.9891C37.161 58.2832 31.0711 64.5963 24.9763 70.9094C20.5572 75.4852 16.1474 80.0705 11.7283 84.651C11.5384 84.8504 11.3818 85.0925 11.1065 85.2017L11.1207 85.2206C11.1776 84.4754 11.7521 83.9818 12.0369 83.3457C12.1982 82.985 12.4687 82.6717 12.5684 82.3252C11.6238 81.879 10.5938 81.841 9.61125 81.6037C9.41189 81.0531 9.56376 80.398 9.10808 79.9281L9.11283 79.9376Z" fill="#232323"/>
<path d="M2.48146 64.6529C2.4245 63.1102 2.42932 61.6767 2.3249 60.2432C2.16351 57.9648 2.1635 55.6769 2.07331 53.3938C1.99262 51.3622 1.8739 49.3306 1.78371 47.3038C1.68878 45.239 1.55585 43.1742 1.52737 41.1093C1.49414 38.7265 1.34234 36.3532 1.2664 33.9703C1.18096 31.2173 1.0432 28.4689 0.919781 25.7158C0.777381 22.4644 0.668286 19.2081 0.525885 15.9519C0.402471 13.1086 0.236342 10.2654 0.174635 7.41736C0.146155 6.23069 -0.100682 5.05351 0.0464651 3.86684C0.184119 3.78615 0.293274 3.85735 0.383461 3.92855C3.13179 6.15 5.88006 8.3762 8.6284 10.5976C11.7944 13.1514 14.9368 15.7431 18.1503 18.2303C19.2278 19.061 19.8781 19.8537 19.2183 21.2255C19.1281 21.4106 19.2278 21.6669 18.9952 21.8853C18.2927 21.1875 17.3861 20.7271 16.7975 19.8917C16.5887 19.5974 15.1125 19.2888 14.7945 19.4217C14.6331 19.4882 14.5476 19.6069 14.5144 19.7682C14.4669 20.0198 14.3529 20.2382 14.22 20.447C13.8735 20.3426 13.622 20.1337 13.4226 19.83C13.1805 19.455 12.7581 19.341 12.3546 19.4075C12.0461 19.4597 11.7661 19.5736 11.4623 19.4027C11.3958 19.3648 11.2534 19.3695 11.1964 19.417C10.7407 19.7825 10.4132 20.2809 9.94324 20.6416C9.7059 20.822 9.76769 21.1685 9.79143 21.4438C9.85788 22.2365 9.59199 22.8204 8.87998 23.2428C8.31038 23.5751 7.75508 23.9786 7.8785 24.7855C7.18073 25.469 7.59368 26.2237 7.74083 26.9595C7.75981 27.0497 7.81201 27.1351 7.84524 27.2205C7.94492 27.4674 7.87849 27.6667 7.63166 27.7522C7.26142 27.8851 7.10948 28.1889 6.99081 28.5116C6.84841 28.9056 6.63013 29.2569 6.34533 29.5322C5.78997 30.0733 5.85165 30.8612 5.49565 31.4783C5.44819 31.559 5.49559 31.7251 5.5478 31.8296C5.7614 32.271 5.55255 32.6318 5.31047 32.9593C4.69814 33.7947 4.42765 34.6681 4.90707 35.6601C5.05896 35.9782 5.08263 36.3199 5.08263 36.6664C5.07789 37.2978 5.2061 37.9053 5.4909 38.4749C5.69501 38.8926 5.81368 39.391 5.5004 39.7091C4.90232 40.3261 5.13018 41.0571 5.04474 41.7454C5.02101 41.9258 5.07314 42.1204 5.07788 42.3055C5.08738 42.6805 5.07316 42.9558 4.62222 43.1979C3.73459 43.6726 3.72509 43.9289 3.90071 44.9589C4.04312 45.7848 4.08118 46.6297 4.47041 47.3987C4.60332 47.6598 4.47516 47.9446 4.23308 48.0348C3.21254 48.4098 3.28838 49.2642 3.29788 50.0901C3.29788 50.223 3.29792 50.3322 3.22672 50.4318C2.63813 51.3195 2.7473 52.2641 2.97988 53.2229C3.0226 53.4033 3.04162 53.6026 3.00839 53.783C2.7853 55.1263 2.92297 56.4981 2.6714 57.8462C2.54798 58.5297 2.60017 59.2037 3.11756 59.7876C3.58748 60.3192 3.79153 60.8983 3.17446 61.5201C2.8944 61.8049 2.96565 62.2463 2.98464 62.6071C3.01786 63.3143 2.81846 63.9362 2.47196 64.6624L2.48146 64.6529Z" fill="white"/>
<path d="M3.90528 94.4905C3.69642 92.9621 3.60151 91.4669 3.57303 89.9622C3.53506 87.8689 3.38313 85.7756 3.29769 83.6823C3.19801 81.2141 3.10316 78.741 3.02721 76.2727C3.00822 75.6319 3.03667 75.6462 3.7012 75.613C4.83566 75.5607 5.95118 75.7506 7.0714 75.8266C7.67423 75.8693 7.77865 76.0592 7.65998 76.6193C6.69166 81.1476 5.71854 85.6759 4.75971 90.209C4.45592 91.633 4.19008 93.0618 3.90528 94.4905Z" fill="white"/>
<path d="M151.499 66.1861C151.267 66.8554 151.418 67.5389 151.39 68.2035C151.352 69.1101 151.39 70.0167 151.395 70.9233C151.395 71.1796 151.414 71.455 151.048 71.4644C150.692 71.4739 150.673 71.2129 150.673 70.947C150.673 69.0674 150.673 67.1924 150.673 65.3127C150.673 65.0659 150.64 64.7906 150.987 64.7242C151.3 64.6624 151.518 64.7859 151.703 65.0469C152.259 65.8349 152.828 66.6181 153.398 67.3965C154.02 68.2509 154.651 69.1006 155.315 70.0025C155.539 69.7794 155.463 69.5563 155.463 69.3664C155.467 68.1133 155.463 66.8649 155.467 65.6118C155.467 65.3934 155.463 65.1703 155.496 64.9567C155.524 64.7811 155.672 64.7194 155.847 64.7194C156.018 64.7194 156.156 64.7764 156.189 64.9615C156.213 65.1134 156.217 65.2748 156.217 65.4267C156.217 67.2114 156.227 68.9962 156.208 70.7762C156.208 71.0183 156.369 71.3743 155.942 71.4597C155.581 71.5309 155.387 71.3268 155.187 71.0467C154.162 69.5895 153.118 68.1513 152.069 66.7083C151.926 66.5136 151.812 66.2811 151.504 66.1719L151.499 66.1861Z" fill="white"/>
<path d="M81.6941 76.2873C81.6941 77.7493 81.6941 79.216 81.6941 80.6875C81.6941 80.9059 81.6941 81.1242 81.6894 81.3426C81.6894 81.5229 81.5991 81.6274 81.4093 81.6321C81.2146 81.6321 81.0248 81.6226 80.9964 81.371C80.9821 81.2476 80.9869 81.1195 80.9869 80.9961C80.9869 79.2113 80.9869 77.4313 81.0011 75.6465C81.0011 75.395 80.854 75.0342 81.2289 74.9108C81.5992 74.7874 81.8744 74.963 82.0975 75.281C83.1323 76.7288 84.1766 78.1718 85.2256 79.6053C85.3633 79.7904 85.425 80.0704 85.8332 80.1274C85.8332 79.5246 85.8332 78.9502 85.8332 78.3759C85.8332 77.3458 85.8332 76.3111 85.8332 75.281C85.8332 75.0769 85.8806 74.9108 86.1274 74.8966C86.398 74.8776 86.5405 75.001 86.55 75.2715C86.5547 75.4614 86.5595 75.6465 86.5595 75.8364C86.5595 77.493 86.5689 79.1543 86.55 80.8109C86.55 81.0862 86.7588 81.4755 86.3316 81.6226C85.8759 81.7793 85.6623 81.428 85.4439 81.1195C84.7367 80.1322 84.0199 79.1496 83.3079 78.1623C82.9235 77.6306 82.5532 77.0895 82.1593 76.5626C82.0596 76.425 81.9789 76.2114 81.6989 76.2921L81.6941 76.2873Z" fill="white"/>
<path d="M72.557 77.9629C72.7137 77.9629 72.8703 77.9629 73.0269 77.9629C74.1472 77.9629 74.1661 77.9771 74.0427 79.1306C74.0189 79.3489 73.9953 79.5673 73.9668 79.7809C73.8576 80.7255 73.2594 81.409 72.3528 81.6226C71.4794 81.8315 70.5966 81.7745 69.7469 81.5846C68.9447 81.409 68.3562 80.8584 68.0762 80.0704C67.6727 78.9502 67.6632 77.8015 68.0429 76.6671C68.304 75.8839 68.8166 75.2905 69.6282 75.0579C70.7959 74.7257 71.9636 74.6829 73.0743 75.2715C73.2737 75.376 73.6725 75.4614 73.4162 75.8554C73.2311 76.1402 73.0269 76.1497 72.7231 75.9408C71.8782 75.3475 70.9146 75.4804 70.0032 75.675C69.3672 75.8127 68.9353 76.3395 68.7359 76.9614C68.4274 77.906 68.4037 78.86 68.7882 79.8046C69.016 80.3647 69.3863 80.7445 69.9701 80.9106C70.8008 81.1432 71.6362 81.2144 72.4431 80.8441C73.0744 80.5546 73.5206 79.4534 73.2975 78.8363C73.2121 78.599 73.0126 78.6322 72.837 78.6274C72.3671 78.618 71.8972 78.6274 71.4272 78.6274C71.2136 78.6274 71.0523 78.5705 71.076 78.3142C71.095 78.0958 71.1994 77.9629 71.4272 77.9582C71.8022 77.9582 72.182 77.9582 72.557 77.9582V77.9629Z" fill="white"/>
<path d="M101.474 80.1223C101.474 78.6841 101.474 77.3075 101.474 75.9262C101.474 75.7079 101.474 75.4896 101.474 75.2665C101.474 75.0529 101.564 74.9152 101.801 74.8962C102.081 74.8772 102.2 75.0149 102.2 75.2807C102.2 75.7174 102.2 76.1588 102.2 76.5955C102.2 78.1002 102.2 79.6049 102.2 81.1096C102.2 81.3042 102.3 81.5843 101.963 81.6223C101.749 81.646 101.521 81.6697 101.388 81.4277C101.312 81.29 101.208 81.1713 101.118 81.0432C100.083 79.6287 99.053 78.2094 98.0087 76.8044C97.89 76.643 97.8188 76.3914 97.5103 76.3914C97.3631 77.0939 97.4676 77.8012 97.4486 78.5084C97.4296 79.2584 97.4771 80.0131 97.4296 80.7631C97.4106 81.0622 97.7144 81.627 97.0641 81.6128C96.485 81.5985 96.7651 81.0859 96.7604 80.8106C96.7319 79.1493 96.7461 77.4879 96.7461 75.8266C96.7461 75.7032 96.7461 75.575 96.7461 75.4516C96.7604 75.2475 96.6797 74.9817 96.9787 74.9152C97.2255 74.8582 97.4818 74.8487 97.648 75.1098C97.7144 75.2142 97.7904 75.3187 97.8616 75.4184C98.8585 76.7854 99.8504 78.1477 100.857 79.51C100.999 79.7046 101.089 79.9562 101.474 80.1223Z" fill="white"/>
<path d="M66.5285 68.099C66.5285 67.1924 66.5475 66.281 66.519 65.3744C66.5047 64.9092 66.6186 64.6766 67.136 64.7004C68.1945 64.7478 69.2626 64.6292 70.3116 64.895C71.3321 65.1561 71.9207 65.7731 72.0821 66.8222C72.1913 67.5342 72.2719 68.2367 72.139 68.9629C71.8305 70.6337 71.0852 71.3647 69.3954 71.4597C68.6169 71.5071 67.829 71.4597 67.0458 71.4786C66.6281 71.4881 66.5 71.303 66.5142 70.9138C66.5332 70.4439 66.519 69.9739 66.519 69.504C66.519 69.0341 66.519 68.5642 66.519 68.0943L66.5285 68.099ZM68.7973 65.4551C68.446 65.4551 68.1946 65.4836 67.9477 65.4504C67.4161 65.3792 67.2405 65.6022 67.2452 66.1196C67.2642 67.4629 67.2547 68.8015 67.2405 70.1448C67.2357 70.629 67.4303 70.8189 67.9192 70.7809C68.4793 70.7382 69.0442 70.7619 69.6043 70.7239C70.378 70.6717 71.1897 70.2113 71.3748 69.1195C71.503 68.3648 71.5172 67.6481 71.3558 66.9028C71.2182 66.262 70.8527 65.8728 70.2641 65.626C69.7514 65.4124 69.2245 65.4693 68.8021 65.4551H68.7973Z" fill="white"/>
<path d="M103.643 64.7101C104.929 64.6247 105.992 64.9332 106.59 66.0534C107.307 67.4015 107.279 68.8065 106.605 70.1783C106.363 70.6672 105.959 71.0327 105.451 71.2368C104.174 71.7542 102.902 71.721 101.659 71.1086C99.8597 70.221 99.8406 66.1246 101.564 65.1563C102.242 64.7718 102.959 64.6294 103.643 64.7149V64.7101ZM106.344 68.104C106.339 66.3809 105.608 65.4506 103.975 65.3367C102.423 65.2275 101.488 65.7686 101.155 67.0645C100.97 67.7812 100.989 68.5407 101.193 69.2812C101.393 70.0074 101.858 70.4631 102.541 70.7194C104.621 71.5074 106.353 70.3207 106.344 68.104Z" fill="white"/>
<path d="M82.7287 68.7589C83.0373 69.7129 83.754 70.4202 84.1147 71.379C83.7825 71.493 83.5262 71.6069 83.2983 71.1607C82.985 70.5531 82.5436 70.012 82.2446 69.3997C81.9835 68.8633 81.618 68.7209 81.0531 68.7399C79.5342 68.7873 79.8475 68.6782 79.8143 70.012C79.8048 70.3538 79.8096 70.7003 79.8143 71.0468C79.8143 71.2888 79.7811 71.4787 79.4678 71.474C79.1545 71.4692 79.1259 71.2604 79.1212 71.0278C79.1212 70.6813 79.1212 70.3395 79.1212 69.993C79.1212 68.4266 79.1308 66.8649 79.1118 65.2985C79.1118 64.8618 79.2447 64.6672 79.7052 64.7004C80.702 64.7669 81.7082 64.5865 82.6955 64.8001C84.1052 65.1087 84.6369 66.1055 84.2286 67.4962C84.0055 68.2652 83.4217 68.5405 82.724 68.7541L82.7287 68.7589ZM81.3 68.0848C81.7082 68.0848 82.1212 68.1323 82.5199 68.0753C83.3221 67.9614 83.6164 67.5152 83.5737 66.5944C83.5357 65.8159 83.2224 65.5026 82.4012 65.4647C81.9313 65.4457 81.4614 65.4647 80.9915 65.4647C80.2067 65.4647 79.8143 65.8602 79.8143 66.6513C79.8143 67.6165 80.3095 68.0959 81.3 68.0896V68.0848Z" fill="white"/>
<path d="M108.973 65.9205C108.973 67.6388 108.987 69.1625 108.964 70.6909C108.964 70.9709 109.206 71.4551 108.617 71.4693C108.029 71.4883 108.237 71.0042 108.233 70.7146C108.214 68.9916 108.214 67.2685 108.233 65.5455C108.233 65.2702 108.038 64.8857 108.465 64.7338C108.921 64.5772 109.149 64.9047 109.377 65.218C110.255 66.4331 111.133 67.6483 112.011 68.8634C112.277 69.2337 112.543 69.6086 112.813 69.9789C112.88 69.9599 112.946 69.9409 113.013 69.9219C113.013 69.3428 113.013 68.7637 113.013 68.1894C113.013 67.3112 113.003 66.4331 113.003 65.5597C113.003 65.3414 112.97 65.1183 113.074 64.9142C113.16 64.748 113.307 64.7196 113.468 64.7433C113.615 64.7623 113.682 64.8572 113.687 64.9949C113.691 65.1183 113.687 65.2464 113.687 65.3698C113.687 67.1878 113.687 69.0058 113.682 70.8238C113.682 71.0469 113.824 71.3554 113.478 71.4646C113.141 71.569 112.965 71.3269 112.794 71.0944C111.85 69.808 110.91 68.5217 109.965 67.2353C109.676 66.8413 109.377 66.4616 108.968 65.93L108.973 65.9205Z" fill="white"/>
<path d="M167.818 68.7493C168.255 69.6986 168.886 70.4486 169.223 71.3552C168.805 71.5831 168.554 71.4549 168.35 71.0942C168.032 70.5246 167.661 69.9739 167.367 69.3901C167.13 68.9107 166.835 68.7351 166.271 68.7446C164.766 68.7683 165.06 68.6923 165.041 70.0072C165.036 70.3822 165.041 70.7572 165.027 71.1321C165.018 71.4312 164.809 71.4739 164.566 71.4549C164.32 71.4359 164.282 71.284 164.282 71.0704C164.296 69.0958 164.301 67.1259 164.305 65.1513C164.305 64.9092 164.348 64.6956 164.652 64.7099C165.834 64.7621 167.035 64.5342 168.203 64.8665C169.076 65.1181 169.375 65.5026 169.399 66.4187C169.408 66.7604 169.418 67.1117 169.361 67.4487C169.228 68.2604 168.582 68.512 167.813 68.7398L167.818 68.7493ZM166.541 65.4551C166.166 65.4551 165.791 65.4551 165.416 65.4551C165.212 65.4551 165.036 65.4931 165.046 65.7494C165.065 66.4946 164.79 67.3633 165.165 67.9376C165.459 68.3933 166.327 68.0373 166.935 68.0895C167.12 68.1038 167.31 68.1038 167.495 68.0895C168.34 68.0183 168.696 67.6101 168.691 66.7415C168.687 65.8206 168.388 65.5026 167.476 65.4598C167.163 65.4456 166.854 65.4598 166.541 65.4598V65.4551Z" fill="white"/>
<path d="M145.285 68.7967C145.789 69.6559 146.287 70.5055 146.8 71.3789C146.33 71.5356 146.04 71.5213 145.827 71.0514C145.57 70.4913 145.157 70.0024 144.896 69.4423C144.63 68.8679 144.236 68.7065 143.634 68.735C142.257 68.8062 142.504 68.6353 142.48 69.8932C142.475 70.2682 142.48 70.6432 142.48 71.0182C142.48 71.2508 142.466 71.4596 142.148 71.4738C141.797 71.4881 141.73 71.2792 141.73 70.9944C141.73 70.4011 141.73 69.803 141.73 69.2097C141.73 67.9281 141.744 66.6417 141.725 65.3601C141.716 64.8807 141.882 64.6718 142.376 64.7051C143.496 64.7858 144.621 64.5674 145.736 64.876C146.306 65.0326 146.653 65.3316 146.828 65.8965C147.26 67.2825 146.79 68.2081 145.29 68.7967H145.285ZM144.104 65.455C143.7 65.455 143.292 65.4598 142.888 65.455C142.637 65.4503 142.466 65.4978 142.471 65.8016C142.48 66.4566 142.475 67.1069 142.475 67.7619C142.475 67.9328 142.523 68.0895 142.722 68.08C143.648 68.0325 144.588 68.2698 145.494 67.9376C146.031 67.7429 146.311 67.1496 146.221 66.4993C146.13 65.8443 145.774 65.493 145.124 65.4598C144.782 65.4408 144.441 65.4598 144.099 65.4598L144.104 65.455Z" fill="white"/>
<path d="M140.401 64.7098V65.4598C139.381 65.4598 138.379 65.474 137.382 65.4503C136.931 65.4408 136.694 65.5215 136.713 66.0531C136.775 67.7761 136.443 67.629 138.242 67.6337C138.773 67.6337 139.31 67.6337 139.841 67.6337C140.102 67.6337 140.368 67.6575 140.349 68.0182C140.335 68.3268 140.093 68.3363 139.87 68.3315C139.276 68.3268 138.678 68.2983 138.085 68.2935C137.805 68.2935 137.52 68.3315 137.24 68.3363C136.894 68.341 136.77 68.5071 136.727 68.8536C136.499 70.6716 136.58 70.7808 138.351 70.7855C138.916 70.7855 139.48 70.7856 140.045 70.7903C140.287 70.7903 140.472 70.8757 140.477 71.17C140.482 71.5165 140.23 71.4738 140.017 71.4738C138.859 71.4786 137.696 71.4596 136.538 71.4881C136.12 71.4976 135.963 71.3219 135.958 70.9469C135.954 70.4153 135.958 69.8837 135.958 69.3473C135.958 68.0325 135.949 66.7129 135.958 65.3981C135.963 64.7288 135.982 64.7145 136.651 64.7098C137.871 64.7003 139.096 64.7098 140.406 64.7098H140.401Z" fill="white"/>
<path d="M65.4084 78.9451C65.9211 79.847 66.391 80.6777 66.8657 81.5178C66.4243 81.7172 66.1489 81.6697 65.9495 81.2805C65.7217 80.8391 65.3942 80.4356 65.2139 79.9799C64.8721 79.1208 64.2787 78.8312 63.3911 78.9119C62.6364 78.9784 62.6222 78.9451 62.6079 79.7236C62.5984 80.2267 62.6032 80.7251 62.6079 81.2283C62.6079 81.4846 62.5415 81.646 62.2424 81.646C61.9054 81.646 61.9291 81.4182 61.9291 81.1951C61.9291 79.2537 61.9291 77.3075 61.9291 75.3661C61.9291 75.0671 62.0241 74.8867 62.3563 74.901C63.5098 74.9484 64.6727 74.7586 65.8119 75.0624C66.6569 75.2854 66.9843 75.7126 67.0175 76.6003C67.0175 76.662 67.0175 76.7237 67.0175 76.7901C67.0317 78.1335 66.8087 78.4515 65.4132 78.9546L65.4084 78.9451ZM64.0461 78.2284C64.4828 78.2284 64.929 78.2806 65.3562 78.2189C66.1014 78.1097 66.3293 77.711 66.2866 76.7664C66.2534 76.0022 65.9686 75.6747 65.2234 75.6272C64.6965 75.594 64.1601 75.613 63.6332 75.6177C62.3848 75.632 62.5604 75.4753 62.5652 76.7284C62.5652 77.2173 62.3421 77.8297 62.6933 78.1572C63.0019 78.442 63.5904 78.2142 64.0508 78.2284H64.0461Z" fill="white"/>
<path d="M61.5352 68.2986C61.5352 69.0248 61.5542 69.6514 61.5305 70.2732C61.5115 70.7051 61.7108 70.7906 62.0906 70.7811C62.8405 70.7621 63.5953 70.7811 64.3452 70.7858C64.5351 70.7858 64.7202 70.7858 64.9101 70.7858C65.1806 70.7811 65.3088 70.895 65.2993 71.1798C65.2898 71.4456 65.1189 71.4741 64.9196 71.4741C63.9465 71.4741 62.9782 71.4741 62.0052 71.4741C61.2045 71.4741 60.8026 71.0849 60.7995 70.3064C60.7995 68.6451 60.8137 66.9885 60.79 65.3271C60.7805 64.8382 60.9277 64.6768 61.4213 64.6958C62.5178 64.729 63.6143 64.7053 64.7107 64.7101C64.9481 64.7101 65.2233 64.6483 65.2423 65.0518C65.2613 65.5075 64.9528 65.4505 64.6822 65.4505C63.8373 65.4505 62.9877 65.4743 62.1428 65.4458C61.7204 65.4316 61.54 65.517 61.5257 65.9964C61.4735 67.6293 61.4498 67.6293 63.0542 67.6293C63.619 67.6293 64.1839 67.6293 64.744 67.6388C65.0003 67.6388 65.1427 67.7764 65.1427 68.047C65.1427 68.3555 64.9054 68.2843 64.7488 68.2843C63.7187 68.2938 62.6839 68.2891 61.54 68.2891L61.5352 68.2986Z" fill="white"/>
<path d="M73.4017 68.0468C73.4017 67.107 73.4064 66.1719 73.4017 65.232C73.4017 64.9093 73.4539 64.7004 73.8526 64.7052C75.0108 64.7241 76.169 64.7147 77.3272 64.7147C77.5978 64.7147 77.8397 64.7526 77.8255 65.1086C77.8113 65.4789 77.536 65.4551 77.2844 65.4551C76.4063 65.4551 75.5329 65.4741 74.6548 65.4504C74.2465 65.4409 74.1279 65.5928 74.1042 65.9868C74.0092 67.6339 73.9997 67.6339 75.6326 67.6339C76.1975 67.6339 76.7576 67.6339 77.3224 67.6291C77.5835 67.6291 77.7353 67.7288 77.7258 68.0136C77.7211 68.3364 77.536 68.3221 77.2844 68.3126C76.4728 68.2889 75.6563 68.2842 74.8446 68.2984C74.161 68.3079 74.1517 68.3316 74.1184 68.9629C74.0615 70.1813 74.6564 70.7904 75.9032 70.7904C76.4016 70.7904 76.9047 70.7904 77.4031 70.7857C77.6452 70.7857 77.8493 70.8426 77.8588 71.1322C77.8683 71.436 77.6547 71.4787 77.4174 71.4787C76.2259 71.4787 75.0393 71.4692 73.8478 71.4834C73.4539 71.4882 73.3827 71.2936 73.3874 70.9613C73.3969 69.993 73.3874 69.0199 73.3874 68.0516L73.4017 68.0468Z" fill="white"/>
<path d="M124.015 68.0515C124.015 67.1449 124.03 66.2335 124.011 65.3269C124.001 64.9234 124.054 64.6861 124.561 64.7003C125.691 64.7335 126.821 64.7145 127.946 64.7098C128.207 64.7098 128.392 64.6956 128.397 65.0895C128.401 65.5167 128.174 65.455 127.936 65.455C127.025 65.455 126.118 65.4693 125.207 65.455C124.841 65.4455 124.708 65.5785 124.708 65.9392C124.694 67.9803 124.528 67.6148 126.284 67.6385C126.721 67.6433 127.163 67.629 127.599 67.6528C127.879 67.667 128.33 67.5009 128.33 67.9755C128.33 68.5119 127.851 68.3268 127.547 68.3315C126.825 68.341 126.104 68.3315 125.387 68.2983C124.917 68.2793 124.732 68.4502 124.694 68.9391C124.552 70.7951 124.533 70.7903 126.398 70.7951C126.93 70.7951 127.466 70.7951 127.998 70.7951C128.278 70.7951 128.501 70.8995 128.468 71.2365C128.435 71.5783 128.15 71.4738 127.96 71.4786C126.83 71.4881 125.701 71.4596 124.576 71.4976C124.077 71.5118 124.011 71.2887 124.015 70.8805C124.034 69.9407 124.02 69.0008 124.02 68.061L124.015 68.0515Z" fill="white"/>
<path d="M75.2765 78.2286C75.2765 77.2887 75.3049 76.3489 75.2622 75.4138C75.2432 74.9723 75.4093 74.8821 75.7938 74.8869C76.9187 74.9011 78.0485 74.8964 79.1735 74.8869C79.4678 74.8869 79.6671 74.9581 79.6766 75.2904C79.6909 75.6938 79.387 75.6179 79.1497 75.6226C78.2716 75.6274 77.3982 75.6416 76.52 75.6226C76.1071 75.6131 75.9979 75.7698 75.979 76.1638C75.8983 77.8726 75.884 77.8726 77.6023 77.8773C78.1339 77.8773 78.6656 77.8773 79.1972 77.8773C79.4488 77.8773 79.6244 77.9438 79.6006 78.2475C79.5816 78.5039 79.4108 78.5276 79.2067 78.5276C78.3286 78.5276 77.4504 78.5513 76.577 78.5134C76.1024 78.4944 75.9647 78.6842 75.979 79.1114C75.9932 79.5481 75.9979 79.9896 75.9695 80.4263C75.941 80.8392 76.1071 80.9816 76.5105 80.9721C77.2937 80.9532 78.077 80.9722 78.8602 80.9816C79.0453 80.9816 79.2399 80.9627 79.4203 80.9911C79.6292 81.0244 79.7335 81.181 79.7193 81.3993C79.705 81.5987 79.5627 81.6462 79.3918 81.6509C79.1402 81.6509 78.8886 81.6509 78.6418 81.6509C77.7636 81.6509 76.8903 81.6509 76.0122 81.6509C75.2812 81.6509 75.2764 81.6414 75.2717 80.8725C75.2717 79.9943 75.2717 79.1209 75.2717 78.2428L75.2765 78.2286Z" fill="white"/>
<path d="M54.8135 81.5464C55.6347 79.4674 56.4512 77.3931 57.2723 75.3188C57.3625 75.0909 57.4336 74.8536 57.7754 74.8631C58.1077 74.8726 58.2501 75.0055 58.3687 75.3188C59.1187 77.2601 59.8972 79.192 60.6709 81.1239C60.7374 81.2901 60.9035 81.4989 60.6567 81.5939C60.4526 81.6698 60.1535 81.7458 60.0443 81.3945C60.0159 81.3043 59.9399 81.2284 59.9257 81.1429C59.7975 80.2316 59.2327 80.0085 58.4068 80.1224C58.008 80.1746 57.5903 80.1794 57.1916 80.1224C56.3894 80.0037 55.8815 80.2553 55.7107 81.0955C55.611 81.5796 55.3261 81.7837 54.8135 81.5512V81.5464ZM56.3989 79.3487H59.2184C58.7865 78.1858 58.3735 77.075 57.7849 75.8409C57.2865 77.094 56.8593 78.181 56.3989 79.3487Z" fill="white"/>
<path d="M84.9314 71.3839C85.7241 69.3903 86.4979 67.4584 87.2668 65.5218C87.3238 65.3794 87.3949 65.237 87.4472 65.0898C87.5373 64.8288 87.6846 64.6674 87.9931 64.7006C88.2399 64.7243 88.3776 64.8335 88.4678 65.0708C89.2415 67.0407 90.0247 69.0011 90.8126 70.9662C90.8838 71.1466 90.9834 71.3555 90.7603 71.4456C90.5705 71.5216 90.3189 71.5168 90.1908 71.27C90.1338 71.1608 90.0815 71.0422 90.0341 70.9283C89.7619 70.289 89.2779 69.9694 88.5817 69.9694C88.2352 69.9694 87.8886 69.9979 87.5468 69.9647C86.6734 69.8792 85.952 69.9647 85.7858 71.0612C85.7241 71.4646 85.3872 71.5833 84.9268 71.3792L84.9314 71.3839ZM89.3838 69.2005C88.876 68.028 88.5389 66.8936 87.9218 65.7022C87.4092 66.941 86.9298 68.0138 86.5596 69.2005H89.3838Z" fill="white"/>
<path d="M178.707 71.3696C178.256 71.5358 177.933 71.5548 177.834 71.0136C177.672 70.1118 177.117 69.846 176.244 69.9551C175.66 70.0263 175.057 69.9979 174.463 69.9551C174.036 69.9267 173.832 70.107 173.723 70.482C173.661 70.6909 173.566 70.8902 173.509 71.0991C173.395 71.5073 173.12 71.531 172.778 71.4314C172.679 71.2415 172.769 71.0706 172.831 70.9092C173.571 69.0295 174.321 67.1546 175.076 65.2844C175.185 65.0138 175.242 64.6958 175.683 64.6958C176.125 64.6958 176.182 65.0138 176.291 65.2844C177.098 67.297 177.891 69.3096 178.702 71.3649L178.707 71.3696ZM174.245 69.1814H177.112C176.642 68.0185 176.196 66.9173 175.674 65.6356C175.157 66.9125 174.72 68.0042 174.245 69.1814Z" fill="white"/>
<path d="M109.292 81.5514C108.822 81.6796 108.504 81.7033 108.404 81.2144C108.371 81.0625 108.271 80.9296 108.233 80.7825C108.11 80.3031 107.887 80.061 107.317 80.1132C106.572 80.1844 105.812 80.1607 105.062 80.1132C104.63 80.0847 104.436 80.2461 104.331 80.6258C104.255 80.8964 104.146 81.1527 104.037 81.4138C103.928 81.6796 103.672 81.6701 103.477 81.6037C103.225 81.5182 103.344 81.3046 103.411 81.1337C104.18 79.1923 104.953 77.2557 105.717 75.3143C105.831 75.0248 105.974 74.8444 106.325 74.8539C106.671 74.8634 106.724 75.1149 106.814 75.3333C107.635 77.3839 108.451 79.4344 109.292 81.542V81.5514ZM106.259 75.789C105.727 77.1085 105.29 78.2003 104.83 79.3347H107.678C107.208 78.1623 106.771 77.0753 106.259 75.789Z" fill="white"/>
<path d="M157.195 71.3983C158.035 69.2955 158.861 67.2164 159.692 65.1421C159.782 64.919 159.863 64.6722 160.205 64.6959C160.489 64.7149 160.641 64.8241 160.751 65.1041C161.51 67.0455 162.284 68.9822 163.057 70.9236C163.133 71.1134 163.328 71.346 162.996 71.4505C162.792 71.5169 162.554 71.4884 162.445 71.2274C162.407 71.1419 162.341 71.0612 162.331 70.971C162.212 70.0692 161.667 69.8461 160.836 69.9553C160.314 70.0217 159.768 70.0075 159.241 69.9553C158.676 69.8983 158.349 70.0882 158.23 70.6435C158.197 70.7954 158.121 70.9331 158.069 71.0802C157.917 71.5074 157.618 71.5359 157.2 71.3983H157.195ZM158.795 69.1673H161.619C161.163 68.0091 160.788 66.8936 160.19 65.669C159.687 66.9269 159.255 68.0091 158.795 69.1673Z" fill="white"/>
<path d="M94.7667 64.7004C95.3078 64.6577 95.9296 64.7194 96.4849 65.0564C96.6985 65.1893 97.083 65.2747 96.8647 65.664C96.6796 65.9915 96.4517 65.8966 96.1622 65.7304C95.4549 65.3222 94.686 65.27 93.8885 65.4361C93.0056 65.6213 92.436 66.1481 92.2319 67.0168C92.099 67.5864 92.0421 68.156 92.1133 68.7731C92.3553 70.8521 94.5294 71.2271 95.8252 70.6907C95.9106 70.6527 95.9913 70.6005 96.072 70.5578C96.3473 70.4012 96.6749 70.0167 96.9075 70.5293C97.1116 70.9803 96.6273 71.1132 96.352 71.2318C95.341 71.678 94.2872 71.6733 93.2382 71.36C93.0008 71.2888 92.773 71.1701 92.5642 71.0325C91.4962 70.3205 90.9978 68.5452 91.5294 66.656C91.9092 65.3127 93.1576 64.6102 94.3917 64.7004C94.4866 64.7051 94.5816 64.7004 94.7667 64.7004Z" fill="white"/>
<path d="M120.014 70.3397C120.598 68.8492 121.182 67.354 121.775 65.8636C121.899 65.5455 122.037 65.2323 122.174 64.919C122.293 64.6532 122.549 64.6769 122.744 64.7481C123.005 64.843 122.853 65.0329 122.782 65.2085C122.008 67.1452 121.234 69.0818 120.47 71.0185C120.375 71.2653 120.294 71.4504 119.976 71.4884C119.601 71.5359 119.459 71.2938 119.359 71.0422C118.576 69.0723 117.807 67.1024 117.029 65.1278C116.972 64.9854 116.858 64.8288 117.062 64.7386C117.233 64.6674 117.461 64.6484 117.594 64.7956C117.712 64.9285 117.76 65.1231 117.831 65.294C118.453 66.8556 119.075 68.4173 119.692 69.9789C119.749 70.1261 119.787 70.278 120.014 70.3302V70.3397Z" fill="white"/>
<path d="M55.3455 68.0991C55.3455 67.1924 55.3645 66.2811 55.336 65.3745C55.3218 64.9188 55.4168 64.6862 55.9484 64.7052C57.0116 64.7384 58.0796 64.7147 59.1429 64.7147C59.404 64.7147 59.6507 64.7384 59.6602 65.0992C59.6697 65.4836 59.3945 65.4599 59.1476 65.4599C58.3312 65.4599 57.5195 65.4931 56.703 65.4504C56.1856 65.4219 56.086 65.6308 56.0813 66.096C56.0576 67.7193 56.0433 67.7193 57.6951 67.7193C58.1983 67.7193 58.6966 67.7193 59.1998 67.7193C59.3944 67.7193 59.5986 67.7431 59.6081 67.9946C59.6223 68.2604 59.4656 68.3981 59.1998 68.3981C58.3834 68.3981 57.5717 68.4313 56.7553 68.3886C56.2047 68.3601 56.0481 68.5785 56.0813 69.0864C56.1145 69.6465 56.1098 70.2161 56.0813 70.7762C56.0671 71.0373 56.2901 71.4597 55.7442 71.474C55.1414 71.4882 55.3598 71.0183 55.3503 70.7335C55.3266 69.8553 55.3408 68.9819 55.3408 68.1038L55.3455 68.0991Z" fill="white"/>
<path d="M90.0057 78.5468C90.0057 77.7304 89.9915 76.914 90.0105 76.1023C90.02 75.7368 89.8823 75.5991 89.5168 75.6134C89.0136 75.6324 88.5153 75.6229 88.0121 75.6134C87.808 75.6134 87.5517 75.6751 87.528 75.3333C87.509 75.0105 87.6608 74.8824 87.9741 74.8871C88.5057 74.8919 89.0421 74.8871 89.5737 74.8871C90.6085 74.8871 91.6433 74.8824 92.678 74.8871C92.9439 74.8871 93.2857 74.8017 93.3141 75.2384C93.3426 75.7036 92.9914 75.5944 92.7303 75.6134C92.6686 75.6181 92.6021 75.6086 92.5404 75.6134C91.9613 75.6798 91.2019 75.3428 90.8364 75.77C90.4946 76.1735 90.7367 76.9092 90.732 77.5026C90.7177 78.694 90.732 79.8854 90.7225 81.0768C90.7225 81.2999 90.8363 81.6084 90.4234 81.6322C89.9914 81.6607 90.001 81.3806 90.001 81.0816C90.0057 80.2366 90.001 79.387 90.001 78.5421L90.0057 78.5468Z" fill="white"/>
<path d="M132.498 68.4694C132.498 69.3143 132.498 70.1592 132.498 71.0041C132.498 71.1845 132.522 71.4028 132.27 71.455C131.933 71.5262 131.743 71.4313 131.748 71.0326C131.762 69.9978 131.753 68.9678 131.753 67.933C131.753 67.8096 131.753 67.6814 131.753 67.558C131.743 66.903 131.967 66.077 131.653 65.6403C131.311 65.1657 130.433 65.5169 129.792 65.4647C129.546 65.4457 129.256 65.4979 129.232 65.1324C129.204 64.7195 129.498 64.71 129.797 64.71C131.364 64.71 132.93 64.71 134.496 64.71C134.72 64.71 134.943 64.7005 134.957 65.028C134.971 65.365 134.8 65.46 134.496 65.4552C133.993 65.4457 133.495 65.4647 132.992 65.4457C132.636 65.4315 132.489 65.5596 132.498 65.9299C132.517 66.7748 132.503 67.6197 132.503 68.4646L132.498 68.4694Z" fill="white"/>
<path d="M11.0019 82.3439C9.96715 84.3518 8.92769 86.3644 7.86443 88.4197C7.54166 87.9925 7.85013 87.6697 7.91658 87.3517C8.26784 85.7093 8.67134 84.0812 9.01784 82.4389C9.09854 82.0639 9.26 81.8977 9.56853 82.0828C10.01 82.3534 10.5084 81.8692 10.9973 82.3392L11.0019 82.3439Z" fill="#656565"/>
<path d="M170.889 67.9187C170.889 66.9789 170.889 66.039 170.889 65.0992C170.889 64.9093 170.837 64.7194 171.131 64.7147C171.378 64.7099 171.573 64.7527 171.587 65.047C171.597 65.2036 171.606 65.3602 171.606 65.5169C171.606 67.2399 171.606 68.963 171.606 70.686C171.606 70.8427 171.601 70.9993 171.592 71.1559C171.578 71.3885 171.445 71.4787 171.222 71.474C170.979 71.474 170.899 71.3363 170.899 71.118C170.899 70.4297 170.899 69.7414 170.899 69.0484C170.899 68.6734 170.899 68.2984 170.899 67.9187H170.889Z" fill="white"/>
<path d="M95.0562 78.314C95.0562 79.2491 95.0562 80.189 95.0562 81.1241C95.0562 81.3661 95.1132 81.6414 94.7144 81.6367C94.3347 81.6367 94.3489 81.3899 94.3489 81.1288C94.3489 79.2254 94.3489 77.3172 94.3489 75.4138C94.3489 75.1575 94.3252 74.8964 94.7049 74.8917C95.0942 74.8869 95.0562 75.1622 95.0562 75.409C95.0562 76.3774 95.0562 77.3457 95.0562 78.314Z" fill="white"/>
<path d="M149.064 68.1561C149.064 69.058 149.069 69.9646 149.064 70.8664C149.064 71.118 149.183 71.455 148.717 71.4788C148.262 71.5025 148.319 71.2035 148.319 70.9234C148.319 69.0864 148.319 67.2447 148.319 65.4077C148.319 65.3128 148.319 65.2226 148.319 65.1277C148.319 64.8714 148.428 64.7195 148.708 64.7242C149.007 64.729 149.059 64.9236 149.059 65.1609C149.059 66.1577 149.059 67.1545 149.059 68.1513L149.064 68.1561Z" fill="white"/>
<path d="M99.0151 68.1845C99.0151 69.1243 99.0151 70.0594 99.0151 70.9992C99.0151 71.2176 99.0388 71.4644 98.716 71.4692C98.3837 71.4787 98.4075 71.2128 98.4075 71.0087C98.398 69.0721 98.398 67.1307 98.4075 65.194C98.4075 64.9899 98.3837 64.7241 98.7112 64.7241C99.0388 64.7241 99.0199 64.9614 99.0199 65.1845C99.0199 66.1861 99.0199 67.1876 99.0199 68.1845H99.0151Z" fill="white"/>
<path d="M13.7598 76.0025C13.6886 76.2303 13.2852 76.2351 13.3659 76.5721L13.38 76.5579C13.2518 76.4677 13.1238 76.4534 12.9956 76.5579L13.0051 76.5674C12.9197 75.9076 12.8294 75.8316 12.3262 76.1449C12.1126 76.2778 11.9323 76.3965 11.676 76.368L11.6903 76.3822C11.733 76.2588 11.4767 76.1164 11.7093 76.0072C11.8184 75.955 11.994 75.9645 12.0083 75.8269C12.1269 74.8775 12.7962 75.0437 13.4133 75.1434C13.6031 75.1766 13.7741 75.1244 13.9544 75.1244C14.0351 75.618 13.5035 75.6513 13.2519 76.0025H13.7598Z" fill="#656565"/>
<path d="M9.63016 78.803C9.38808 78.803 9.2124 78.879 9.2219 79.1685C9.22664 79.3252 9.21249 79.4723 9.07009 79.572C8.74731 78.466 8.69507 77.3221 8.44824 76.1401C9.14601 76.273 9.19349 76.8094 9.41183 77.1892C9.44981 77.2509 9.44975 77.417 9.23615 77.3933C8.8754 77.3553 9.01779 77.6971 9.10798 77.7255C9.68708 77.9107 9.55422 78.4043 9.63491 78.803H9.63016Z" fill="#656565"/>
<path d="M8.19658 74.028C7.86906 73.3682 7.77888 72.6752 7.964 71.9679C8.07317 71.5597 8.18709 71.085 8.79942 71.1752C8.60006 72.1245 8.39594 73.0786 8.19658 74.028Z" fill="white"/>
<path d="M105.067 62.9917C104.023 64.1831 103.823 64.3065 103.125 64.2496C103.822 63.4142 104.469 62.9949 105.067 62.9917Z" fill="white"/>
<path d="M13.7598 76.0023H13.252C13.4988 75.651 14.0351 75.6178 13.9545 75.1242C14.4386 74.9865 14.8658 75.034 15.1933 75.4897C14.7281 75.7887 14.1965 75.7602 13.7598 76.0023Z" fill="#232323"/>
<path d="M9.11267 79.9375C9.5731 80.4074 9.41649 81.0625 9.61585 81.6131C9.34054 81.5751 9.2551 81.3473 9.2551 81.1384C9.2551 80.7302 9.04147 80.3505 9.11267 79.9375Z" fill="#656565"/>
<path d="M7.67893 88.6949C7.66469 88.7423 7.64577 88.7898 7.63153 88.8373C7.61729 88.8135 7.59353 88.7898 7.59827 88.7708C7.60302 88.7234 7.62679 88.6759 7.64103 88.6284C7.65527 88.6522 7.66944 88.6711 7.68368 88.6949H7.67893Z" fill="#656565"/>
<path d="M11.1109 85.2112C11.0825 85.2587 11.0586 85.3014 11.0302 85.3489C11.0159 85.3109 10.9875 85.2682 10.997 85.2397C11.016 85.1827 11.0681 85.178 11.1298 85.2302L11.1157 85.2112H11.1109Z" fill="#232323"/>
<path d="M10.755 61.1929C10.812 61.8622 10.5081 62.4792 10.4844 63.139C9.94803 62.8637 10.0999 62.389 10.2471 62.014C10.3562 61.7292 10.4417 61.3732 10.755 61.1929Z" fill="white"/>
</svg>
