<svg width="184" height="44" viewBox="0 0 184 44" fill="none" xmlns="http://www.w3.org/2000/svg">
<path d="M132.299 11.787V9.39366H143.071C143.089 9.67135 143.12 9.94462 143.12 10.2179C143.12 16.4416 143.133 22.6697 143.12 28.8934C143.115 30.8944 142.89 32.8779 142.282 34.7953C140.96 38.9429 138.156 41.6845 134.013 42.8437C128.054 44.5098 122.068 44.4305 116.206 42.3192C114.095 41.5611 112.248 40.3402 111.217 38.2024C110.67 37.0652 110.472 36.1396 110.652 35.236H121.782C121.826 35.3242 121.861 35.3639 121.87 35.4079C122.201 37.5148 122.923 38.317 125.022 38.6564C126.414 38.8856 127.82 38.8415 129.138 38.2024C130.884 37.3561 131.611 35.8179 131.831 34.0239C131.999 32.6399 131.995 31.2382 132.074 29.6559C131.673 29.9821 131.43 30.1848 131.179 30.3832C128.464 32.5517 125.304 33.279 121.91 33.2614C120.019 33.2526 118.163 33.041 116.374 32.4019C112.288 30.9473 110.088 27.981 109.458 23.7804C109.132 21.6206 109.207 19.4697 109.806 17.3584C111.186 12.4791 114.589 9.88292 119.424 8.96171C121.782 8.51212 124.153 8.56501 126.52 8.96171C128.42 9.28347 130.077 10.1165 131.549 11.3419C131.748 11.5094 131.959 11.6636 132.166 11.8223C132.18 11.8311 132.211 11.8135 132.312 11.7915L132.299 11.787ZM120.702 20.8713C120.702 20.9198 120.702 20.9683 120.702 21.0168C120.75 23.322 121.517 26.0724 123.779 27.1215C124.29 27.3595 124.841 27.5005 125.396 27.5622C127.543 27.8135 129.403 27.2537 130.734 25.4289C131.924 23.798 132.118 21.9248 131.995 19.9986C131.787 16.7193 129.742 14.1099 125.956 14.3788C123.849 14.5286 121.905 15.7892 121.191 17.8212C120.852 18.7865 120.693 19.8531 120.702 20.8757V20.8713Z" fill="white"/>
<path d="M55.3888 34.6542C51.0825 34.5837 47.1817 34.1297 43.5938 32.23C39.3448 29.9821 37.1453 26.4207 37.088 21.6383C37.0307 16.7722 39.1861 13.1182 43.4836 10.7645C46.115 9.32317 48.98 8.67083 51.9376 8.43722C56.191 8.10223 60.396 8.31381 64.4555 9.78598C66.699 10.6014 68.6913 11.8091 70.3001 13.6075C74.5227 18.3325 74.4081 27.8091 67.153 31.9171C64.3849 33.4818 61.3877 34.2047 58.2582 34.4912C57.196 34.5881 56.1205 34.6146 55.38 34.6542H55.3888ZM48.4688 21.4311C48.504 21.44 48.5349 21.4444 48.5701 21.4532C48.601 21.9512 48.601 22.4537 48.6671 22.9474C48.98 25.2923 49.7954 27.3551 52.1359 28.3689C52.9425 28.7171 53.8682 28.889 54.7497 28.9419C57.7602 29.1226 60.3034 27.7738 61.1497 24.5694C61.4847 23.3044 61.6301 21.938 61.5596 20.6333C61.3789 17.1513 59.6908 14.2422 55.5255 14.0218C52.5723 13.8675 50.029 15.0267 49.0593 18.2311C48.7464 19.2625 48.6583 20.3645 48.4643 21.4355L48.4688 21.4311Z" fill="white"/>
<path d="M162.919 8.29207C166.85 8.34937 170.698 8.8254 174.26 10.6458C177.852 12.4882 180.149 15.3312 180.779 19.3598C181.519 24.0893 179.941 28.9422 175.177 31.8028C172.554 33.3763 169.671 34.1212 166.67 34.4342C162.544 34.8617 158.454 34.6986 154.452 33.4821C152.292 32.8254 150.308 31.8204 148.629 30.2821C146.421 28.2634 145.244 25.7245 144.988 22.7758C144.428 16.1819 147.955 11.7213 153.799 9.66727C156.448 8.73725 159.67 8.26562 162.919 8.29207ZM169.411 21.5152C169.411 21.2066 169.429 20.8981 169.411 20.5896C169.191 17.2 167.547 14.1896 163.249 14.0177C160.314 13.8987 157.872 15.0711 156.871 18.2755C156.307 20.0827 156.276 21.9295 156.638 23.7719C157.149 26.3901 158.551 28.2766 161.292 28.8143C162.231 28.9995 163.241 28.9907 164.193 28.8761C165.7 28.6953 166.991 28.0121 167.935 26.7604C169.112 25.2 169.42 23.4061 169.411 21.5196V21.5152Z" fill="white"/>
<path d="M75.2145 9.38482H86.2735V12.5319C86.4278 12.5011 86.5159 12.5143 86.5467 12.4746C88.5743 10.0328 91.2541 8.94846 94.3484 8.72367C97.2663 8.5121 100.1 8.79419 102.714 10.2399C105.39 11.7209 106.976 14.0482 107.162 17.041C107.426 21.2548 107.391 25.4862 107.47 29.7132C107.492 30.9694 107.47 32.2256 107.47 33.5479C107.157 33.5699 106.902 33.6008 106.65 33.6008C103.486 33.6008 100.321 33.5875 97.1561 33.614C96.5214 33.6184 96.2966 33.4597 96.3055 32.7853C96.3363 29.1049 96.323 25.4201 96.3186 21.7352C96.3186 20.1573 96.1511 18.6013 95.3666 17.1865C94.6569 15.9038 93.5506 15.2074 92.0961 15.1016C90.8575 15.0135 89.6321 15.0399 88.4949 15.679C87.4327 16.2785 86.8905 17.2438 86.6613 18.3545C86.4454 19.3903 86.3484 20.4702 86.3396 21.5325C86.3043 25.2878 86.3131 29.0388 86.3396 32.7942C86.3396 33.4068 86.1897 33.6184 85.5462 33.614C82.333 33.5831 79.1242 33.5919 75.911 33.6096C75.3777 33.6096 75.166 33.495 75.166 32.8999C75.1881 25.2482 75.1793 17.6008 75.1793 9.94901C75.1793 9.78592 75.1969 9.62284 75.2145 9.38042V9.38482Z" fill="white"/>
<path d="M12.6821 16.5696C14.216 14.8991 15.7367 13.233 17.2618 11.5713C20.431 8.12002 23.6045 4.6776 26.7604 1.21314C27.1086 0.829673 27.4569 0.662181 27.9858 0.666589C32.2701 0.688627 36.5499 0.679811 40.8342 0.679811H41.5218L41.6144 0.847304C36.4794 5.83683 31.3488 10.8264 26.1654 15.8644C31.8469 22.4671 37.4976 29.0346 43.232 35.699C42.9234 35.7343 42.7515 35.7696 42.5752 35.7696C38.0794 35.7696 33.5792 35.7784 29.0833 35.7563C28.7792 35.7563 28.3825 35.5756 28.1929 35.3464C23.1109 29.2462 18.0508 23.1238 12.9908 17.0104C12.885 16.8825 12.8012 16.7415 12.6777 16.5696H12.6821Z" fill="white"/>
<path d="M12.3386 35.7433H0.97998V0.746094H12.3386V35.7389V35.7433Z" fill="white"/>
<path fill-rule="evenodd" clip-rule="evenodd" d="M181.189 9.34082C181.506 9.34082 181.811 9.42016 182.102 9.57884C182.392 9.73751 182.622 9.96671 182.789 10.262C182.957 10.5573 183.04 10.8703 183.04 11.1921C183.04 11.5138 182.957 11.8224 182.794 12.1133C182.63 12.4042 182.401 12.6334 182.11 12.7965C181.819 12.9595 181.511 13.0433 181.189 13.0433C180.867 13.0433 180.559 12.964 180.268 12.7965C179.977 12.6334 179.748 12.4042 179.585 12.1133C179.422 11.8224 179.338 11.5138 179.338 11.1921C179.338 10.8703 179.422 10.5573 179.589 10.262C179.757 9.96671 179.986 9.73751 180.277 9.57884C180.568 9.42016 180.872 9.34082 181.189 9.34082ZM181.189 9.70225C180.933 9.70225 180.691 9.76396 180.457 9.89178C180.224 10.0196 180.039 10.2003 179.907 10.4383C179.77 10.6764 179.704 10.9276 179.704 11.1876C179.704 11.4477 179.77 11.6945 179.902 11.9281C180.034 12.1618 180.215 12.3469 180.453 12.4791C180.687 12.6113 180.933 12.6775 181.194 12.6775C181.454 12.6775 181.7 12.6113 181.934 12.4791C182.168 12.3469 182.353 12.1618 182.485 11.9281C182.617 11.6945 182.683 11.4477 182.683 11.1876C182.683 10.9276 182.617 10.6764 182.481 10.4383C182.344 10.2003 182.163 10.0152 181.925 9.89178C181.692 9.76396 181.445 9.70225 181.194 9.70225H181.189ZM180.352 12.1794V10.218H180.753C181.127 10.218 181.335 10.218 181.379 10.2224C181.511 10.2312 181.612 10.2576 181.687 10.3017C181.762 10.3414 181.824 10.4075 181.872 10.4912C181.921 10.575 181.947 10.6719 181.947 10.7733C181.947 10.9144 181.903 11.0378 181.806 11.1348C181.714 11.2361 181.581 11.2978 181.418 11.3243C181.476 11.3463 181.524 11.3728 181.555 11.3992C181.586 11.4257 181.63 11.4742 181.687 11.5491C181.7 11.5667 181.749 11.6461 181.833 11.7871L182.066 12.1838H181.573L181.409 11.8664C181.299 11.6505 181.207 11.5182 181.136 11.4609C181.066 11.4036 180.973 11.3772 180.863 11.3772H180.762V12.1838H180.361L180.352 12.1794ZM180.753 11.0642H180.916C181.145 11.0642 181.291 11.0554 181.343 11.0378C181.401 11.0202 181.44 10.9893 181.476 10.9452C181.511 10.9011 181.524 10.8483 181.524 10.7954C181.524 10.7425 181.507 10.6896 181.476 10.6499C181.445 10.6058 181.401 10.575 181.339 10.5573C181.282 10.5397 181.141 10.5309 180.911 10.5309H180.748V11.0686L180.753 11.0642Z" fill="white"/>
</svg>
