<svg width="260" height="43" viewBox="0 0 260 43" fill="none" xmlns="http://www.w3.org/2000/svg">
<path d="M249.64 42.4932H44.9458V0.237793H249.64V42.4932Z" fill="#202020"/>
<path d="M259.848 38.166C259.848 39.3802 259.354 40.4793 258.559 41.2734C257.765 42.0675 256.666 42.5567 255.452 42.5624C254.238 42.5624 253.139 42.0675 252.339 41.2734C251.545 40.4793 251.056 39.3802 251.05 38.166C251.05 36.9518 251.545 35.8527 252.339 35.0585C253.133 34.2644 254.232 33.7695 255.446 33.7695C256.66 33.7695 257.76 34.2644 258.554 35.0585C259.348 35.8527 259.843 36.9518 259.843 38.166H259.848ZM258.91 38.166C258.91 37.2165 258.525 36.3476 257.898 35.7261C257.27 35.0988 256.407 34.7133 255.458 34.7133C254.503 34.7133 253.639 35.0988 253.012 35.7261C252.385 36.3533 251.999 37.2165 251.999 38.1717C251.999 39.1212 252.385 39.9902 253.012 40.6117C253.639 41.2389 254.503 41.6245 255.458 41.6245C256.413 41.6245 257.276 41.2389 257.903 40.6117C258.531 39.9844 258.916 39.1212 258.916 38.1717L258.91 38.166Z" fill="#202020"/>
<path d="M253.708 35.5304C254.071 35.4556 254.6 35.4038 255.09 35.4038C255.855 35.4038 256.361 35.5534 256.707 35.8642C256.977 36.1059 257.144 36.4857 257.144 36.923C257.144 37.6481 256.672 38.1372 256.097 38.3329V38.3559C256.517 38.5055 256.776 38.9026 256.914 39.478C257.098 40.2549 257.224 40.79 257.334 41.003H256.591C256.499 40.8476 256.379 40.37 256.229 39.6737C256.062 38.9083 255.757 38.6148 255.107 38.5918H254.428V41.003H253.708V35.5189V35.5304ZM254.428 38.0566H255.164C255.93 38.0566 256.419 37.6366 256.419 36.9978C256.419 36.2785 255.901 35.9677 255.141 35.9677C254.796 35.9677 254.554 36.0023 254.434 36.031V38.0509L254.428 38.0566Z" fill="#202020"/>
<path d="M60.7594 21.6043C61.519 21.7424 62.1865 21.846 62.7735 21.9151C63.3604 21.9841 63.8611 22.0186 64.2754 22.0186C65.7601 22.0186 67.0433 21.4662 68.1252 20.3613C69.2013 19.2565 69.7422 17.8236 69.7422 16.0685C69.7422 14.86 69.4832 13.7379 68.9711 12.7021C68.4532 11.6663 67.7281 10.8894 66.7844 10.3772C65.8406 9.85933 64.7703 9.60614 63.5733 9.60614C62.8425 9.60614 61.9103 9.73849 60.7651 9.99745V21.6101L60.7594 21.6043ZM60.7594 22.7782V30.9036C60.7594 32.653 60.9608 33.7348 61.3579 34.1607C61.8988 34.7591 62.7159 35.0584 63.815 35.0584H64.9256V35.818H52.4844V35.0584H53.5777C54.8092 35.0584 55.6897 34.6786 56.2191 33.9132C56.5068 33.4931 56.6507 32.4861 56.6507 30.9036V12.8632C56.6507 11.1196 56.4608 10.032 56.0695 9.61189C55.5113 9.01342 54.6826 8.71419 53.5777 8.71419H52.4844V7.95459H63.1533C65.7543 7.95459 67.8087 8.21355 69.3163 8.7257C70.8183 9.23785 72.0843 10.1068 73.1143 11.3267C74.1444 12.5467 74.6623 13.9968 74.6623 15.6656C74.6623 17.9444 73.8797 19.7916 72.3145 21.2188C70.7492 22.6459 68.5337 23.3594 65.668 23.3594C64.9659 23.3594 64.2063 23.3134 63.395 23.2156C62.5778 23.1177 61.7031 22.9739 60.7767 22.784L60.7594 22.7782Z" fill="white"/>
<path d="M101 9.01371V8.26562H110.616V9.01371H109.586C108.51 9.01371 107.687 9.46832 107.112 10.3718C106.83 10.7919 106.692 11.7644 106.692 13.2951V24.4473C106.692 27.2037 106.415 29.3444 105.869 30.8694C105.322 32.3886 104.246 33.6948 102.64 34.7824C101.035 35.87 98.854 36.4167 96.0918 36.4167C93.0822 36.4167 90.8034 35.8931 89.2497 34.8572C87.696 33.8157 86.5911 32.4116 85.9408 30.6565C85.5092 29.4538 85.2906 27.1922 85.2906 23.8776V13.1224C85.2906 11.4364 85.0546 10.3315 84.5885 9.80784C84.1167 9.28417 83.3628 9.01947 82.3155 9.01947H81.2739V8.27138H93.1858V9.01947H92.1269C90.9875 9.01947 90.1704 9.37625 89.6813 10.0898C89.3418 10.5732 89.1691 11.586 89.1691 13.1224V25.1033C89.1691 26.1737 89.2669 27.3936 89.4626 28.7747C89.664 30.1558 90.015 31.2261 90.5387 31.9973C91.0508 32.7684 91.7989 33.4014 92.7714 33.902C93.744 34.4026 94.9352 34.6501 96.3508 34.6501C98.1577 34.6501 99.7747 34.2588 101.208 33.4762C102.635 32.6936 103.613 31.6865 104.137 30.4666C104.66 29.2408 104.925 27.1692 104.925 24.2517V13.1224C104.925 11.4133 104.735 10.3373 104.361 9.91142C103.837 9.3187 103.055 9.01947 102.025 9.01947H101V9.01371Z" fill="white"/>
<path d="M127.535 21.7196C127.793 21.7196 128.012 21.7196 128.202 21.7311C128.392 21.7368 128.547 21.7426 128.668 21.7426C131.286 21.7426 133.266 21.1729 134.595 20.0278C135.925 18.8826 136.592 17.4267 136.592 15.6601C136.592 13.8934 136.057 12.5296 134.981 11.442C133.905 10.3602 132.483 9.81924 130.717 9.81924C129.934 9.81924 128.875 9.95159 127.535 10.2163V21.7196ZM147.186 35.9735H139.769L130.366 23.0086C129.687 23.0374 129.134 23.0489 128.708 23.0489C128.536 23.0489 128.352 23.0489 128.15 23.0374C127.949 23.0316 127.742 23.0201 127.535 23.0086V31.0879C127.535 32.8258 127.724 33.9019 128.104 34.322C128.616 34.9204 129.387 35.2139 130.412 35.2139H131.488V35.9678H119.674V35.2139H120.71C121.872 35.2139 122.701 34.8341 123.201 34.0745C123.483 33.6545 123.627 32.6589 123.627 31.0822V13.1396C123.627 11.4017 123.437 10.3256 123.057 9.90556C122.528 9.30709 121.745 9.01361 120.71 9.01361H119.674V8.25977H129.75C132.685 8.25977 134.854 8.47268 136.247 8.90427C137.639 9.33586 138.825 10.1242 139.797 11.2751C140.77 12.426 141.253 13.8014 141.253 15.3954C141.253 17.0987 140.695 18.5776 139.584 19.8321C138.468 21.0866 136.747 21.9728 134.411 22.4907L140.143 30.4262C141.449 32.2561 142.571 33.4703 143.509 34.0745C144.447 34.673 145.673 35.0586 147.18 35.2197V35.9735H147.186Z" fill="white"/>
<path d="M166.941 35.2198V35.9736H155.127V35.2198H156.106C157.245 35.2198 158.074 34.886 158.592 34.2243C158.92 33.7869 159.081 32.7453 159.081 31.0938V13.1512C159.081 11.7529 158.989 10.8321 158.816 10.3833C158.678 10.0438 158.402 9.75029 157.982 9.5086C157.389 9.1806 156.762 9.01947 156.106 9.01947H155.127V8.26562H166.941V9.01947H165.952C164.83 9.01947 164.012 9.35323 163.5 10.015C163.161 10.4523 162.994 11.4939 162.994 13.1455V31.088C162.994 32.4864 163.08 33.4071 163.259 33.856C163.397 34.1955 163.679 34.489 164.11 34.7306C164.691 35.0587 165.307 35.2198 165.957 35.2198H166.947H166.941Z" fill="white"/>
<path d="M177.611 8.42665H185.149L202.165 29.2522V13.2374C202.165 11.5283 201.97 10.4638 201.59 10.0437C201.078 9.46822 200.272 9.18049 199.173 9.18049H198.2V8.4209H207.92V9.18049H206.924C205.739 9.18049 204.899 9.53727 204.404 10.2451C204.099 10.6824 203.949 11.678 203.949 13.2374V36.6928H203.224L184.867 14.256V31.4275C184.867 33.1365 185.051 34.2011 185.425 34.627C185.949 35.2024 186.755 35.4844 187.842 35.4844H188.832V36.244H179.113V35.4844H180.085C181.282 35.4844 182.128 35.1276 182.623 34.4198C182.928 33.9825 183.077 32.9869 183.077 31.4275V12.075C182.272 11.1313 181.662 10.504 181.242 10.2048C180.822 9.90556 180.212 9.62359 179.406 9.36464C179.009 9.24379 178.411 9.18049 177.605 9.18049V8.4209L177.611 8.42665Z" fill="white"/>
<path d="M231.03 24.9883L226.207 13.3872L221.195 24.9883H231.03ZM231.68 26.5535H220.516L218.577 31.0536C218.094 32.1699 217.858 32.9986 217.858 33.551C217.858 33.9884 218.065 34.3739 218.479 34.7077C218.899 35.0414 219.797 35.2544 221.178 35.3522V36.1348H212.138V35.3522C213.335 35.1393 214.112 34.8631 214.463 34.5235C215.182 33.8445 215.982 32.4692 216.856 30.3918L227.048 6.74072H227.721L237.694 30.6507C238.499 32.5728 239.224 33.8157 239.88 34.3854C240.536 34.9551 241.451 35.2774 242.625 35.3464V36.129H231.3V35.3464C232.445 35.2889 233.217 35.099 233.619 34.7767C234.022 34.4545 234.224 34.0574 234.224 33.5913C234.224 32.9698 233.942 31.9915 233.378 30.645L231.68 26.5478V26.5535Z" fill="white"/>
<path d="M43.6741 42.5106H0.762695V0.111328H44.1172V42.5049H43.6741V42.5106ZM1.64315 41.6244H43.2311V0.997524H1.64315V41.6244Z" fill="#5B5B5B"/>
<path d="M16.1731 15.5275H3.59375V2.94238H16.1731V15.5275Z" fill="#5B5B5B"/>
<path d="M28.4362 27.6297H15.8511V15.0503H28.4362V27.6297Z" fill="#5B5B5B"/>
<path d="M40.5379 15.5275H27.9585V2.94238H40.5379V15.5275Z" fill="#5B5B5B"/>
<path d="M16.1731 39.7312H3.59375V27.1519H16.1731V39.7312Z" fill="#5B5B5B"/>
<path d="M40.5379 39.7312H27.9585V27.1519H40.5379V39.7312Z" fill="#5B5B5B"/>
</svg>
