<svg width="157" height="67" viewBox="0 0 157 67" fill="none" xmlns="http://www.w3.org/2000/svg">
<path d="M156.3 0.201172H0.848145V66.4728H156.3V0.201172Z" fill="#4D4D4D"/>
<path fill-rule="evenodd" clip-rule="evenodd" d="M9.00098 43.8721H20.6087V33.1598C21.9051 33.4939 23.1481 39.5751 26.5429 42.2148C29.2159 44.2997 35.8317 43.9188 39.9683 43.7451C39.6676 42.8429 34.7893 35.8729 33.5596 34.0018C32.7845 32.819 31.3476 31.5159 30.9935 30.8877C32.477 30.1125 34.1745 29.6314 35.3172 28.3349C36.3062 27.2123 37.0547 25.4347 37.2418 23.49C37.6962 18.8122 36.0924 15.7515 33.4661 13.5262C32.1162 12.3835 30.5658 11.6484 28.7816 11.194C24.7185 10.1715 13.0038 10.1849 9.03434 10.6393L9.00767 43.8654L9.00098 43.8721ZM20.7289 25.2676C23.3285 25.6819 25.6541 25.2743 25.5872 22.501C25.5204 19.8614 23.4354 19.3802 20.7423 19.7544L20.7289 25.2676Z" fill="white"/>
<path fill-rule="evenodd" clip-rule="evenodd" d="M81.688 20.4831L93.6165 20.4497L78.8545 43.8656H101.368C111.105 43.8723 114.399 43.478 113.798 33.6613L98.1807 33.6479C102.631 26.7514 109.227 17.4358 112.468 10.5728H81.688V20.4764V20.4831Z" fill="white"/>
<path fill-rule="evenodd" clip-rule="evenodd" d="M137.655 41.54C137.982 41.9611 138.357 42.2551 138.818 42.5558C141.404 44.2198 147.011 43.8522 150.205 43.7587C150.212 43.2642 139.172 11.8892 138.43 10.6061L125.212 10.5928L113.878 43.1706C113.851 43.625 113.778 43.6183 113.945 43.8723H126.288L128.119 35.9066L135.376 35.7863C135.984 38.0317 136.305 39.8026 137.655 41.54ZM133.665 29.117H130.418L132.042 21.7728L133.665 29.117Z" fill="white"/>
<path fill-rule="evenodd" clip-rule="evenodd" d="M41.1914 43.8721H53.7481C53.9352 43.6449 53.8483 43.6249 54.0087 43.244C54.55 41.9475 55.1314 36.9957 55.8398 35.8997L63.0437 35.7995C63.6117 39.1275 64.6541 41.9743 67.2737 43.0101C69.6795 43.959 74.932 43.9657 77.8925 43.7385L66.0909 10.5859H52.846L41.1981 43.8721H41.1914ZM61.1057 29.0768H57.8579L59.4818 21.7326L61.1057 29.0768Z" fill="white"/>
<path fill-rule="evenodd" clip-rule="evenodd" d="M148.006 9.00879C150.265 9.00879 152.096 10.8398 152.096 13.0986C152.096 15.3573 150.265 17.1883 148.006 17.1883C145.748 17.1883 143.917 15.3573 143.917 13.0986C143.917 10.8398 145.748 9.00879 148.006 9.00879ZM148.006 9.95772C149.744 9.95772 151.147 11.3611 151.147 13.0986C151.147 14.836 149.744 16.2394 148.006 16.2394C146.269 16.2394 144.865 14.836 144.865 13.0986C144.865 11.3611 146.269 9.95772 148.006 9.95772Z" fill="white"/>
</svg>
