<svg width="218" height="61" viewBox="0 0 218 61" fill="none" xmlns="http://www.w3.org/2000/svg">
<path fill-rule="evenodd" clip-rule="evenodd" d="M105.393 7.72226C107.406 7.72226 109.05 6.03886 109.05 4.02666C109.05 2.01446 107.406 0.331055 105.393 0.331055C103.381 0.331055 101.698 1.97501 101.698 4.02666C101.698 6.07831 103.342 7.72226 105.393 7.72226Z" fill="white"/>
<path fill-rule="evenodd" clip-rule="evenodd" d="M105.393 16.1876C107.406 16.1876 109.05 14.5436 109.05 12.492C109.05 10.4403 107.406 8.79639 105.393 8.79639C103.381 8.79639 101.698 10.4403 101.698 12.492C101.698 14.5436 103.342 16.1876 105.393 16.1876Z" fill="white"/>
<path fill-rule="evenodd" clip-rule="evenodd" d="M91.9214 14.0481C91.9214 16.0998 93.5653 17.7437 95.617 17.7437C97.6686 17.7437 99.3564 16.0998 99.3564 14.0481C99.3564 11.9965 97.673 10.3525 95.617 10.3525C93.561 10.3525 91.9214 11.9965 91.9214 14.0481Z" fill="white"/>
<path fill-rule="evenodd" clip-rule="evenodd" d="M115.253 17.2965C117.309 17.2965 118.948 15.6525 118.948 13.6009C118.948 11.5492 117.304 9.90527 115.253 9.90527C113.201 9.90527 111.557 11.5492 111.557 13.6009C111.557 15.6525 113.201 17.2965 115.253 17.2965Z" fill="white"/>
<path fill-rule="evenodd" clip-rule="evenodd" d="M117.059 8.95859C119.071 8.95859 120.754 7.31464 120.754 5.26299C120.754 3.21133 119.071 1.56738 117.059 1.56738C115.047 1.56738 113.363 3.21133 113.363 5.26299C113.363 7.31464 115.007 8.95859 117.059 8.95859Z" fill="white"/>
<path fill-rule="evenodd" clip-rule="evenodd" d="M93.6488 9.16014C95.7049 9.16014 97.3883 7.47674 97.3883 5.4207C97.3883 3.36467 95.7049 1.7251 93.6488 1.7251C91.5928 1.7251 89.9927 3.4085 89.9927 5.4207C89.9927 7.4329 91.6366 9.16014 93.6488 9.16014Z" fill="white"/>
<path fill-rule="evenodd" clip-rule="evenodd" d="M124.617 13.3511C123.919 13.3511 123.262 13.5177 122.688 13.8421C121.618 14.4996 120.921 15.6482 120.921 17.0467C120.921 18.3618 121.618 19.5543 122.688 20.2074C123.262 20.5362 123.919 20.7423 124.617 20.7423C126.668 20.7423 128.312 19.0589 128.312 17.0467C128.312 15.0345 126.668 13.3511 124.617 13.3511Z" fill="white"/>
<path fill-rule="evenodd" clip-rule="evenodd" d="M128.233 5.46436C126.182 5.46436 124.538 7.14776 124.538 9.15996C124.538 11.1722 126.182 12.8556 128.233 12.8556C130.285 12.8556 131.973 11.2116 131.973 9.15996C131.973 7.10831 130.289 5.46436 128.233 5.46436Z" fill="white"/>
<path fill-rule="evenodd" clip-rule="evenodd" d="M122.727 22.3074C111.802 16.5557 100.26 16.1875 88.5546 22.1013C88.3924 22.1846 88.2258 22.2635 88.0636 22.3074C86.9545 23.2105 86.6257 24.0346 87.0378 24.7711C87.2438 25.4287 87.8575 25.5514 88.559 25.3454C88.8483 25.3059 89.1333 25.2226 89.4226 25.0999C100.593 19.1028 112.013 18.6907 122.486 25.2226C122.569 25.2226 122.648 25.2621 122.731 25.3059C123.222 25.512 123.718 25.4287 124.415 24.9377C124.66 24.1179 124.454 23.4603 123.924 22.965C123.555 22.7195 123.143 22.5134 122.731 22.3074H122.727Z" fill="white"/>
<path fill-rule="evenodd" clip-rule="evenodd" d="M122.275 26.2091C113.074 20.0893 102.311 19.515 89.8697 25.6743C88.9272 26.4546 88.5984 27.1955 88.9272 27.8531C89.2165 28.7167 90.1196 28.5107 91.106 28.1424C101.171 22.7634 111.522 22.3513 120.969 28.2652C121.504 28.5107 121.995 28.5107 122.692 28.0197C122.692 27.9802 122.692 27.9364 122.731 27.8969C122.815 27.5681 122.815 27.2394 122.731 26.9106C122.648 26.6651 122.486 26.4196 122.28 26.2135L122.275 26.2091Z" fill="white"/>
<path fill-rule="evenodd" clip-rule="evenodd" d="M90.2384 17.2527C90.2384 15.9376 89.5808 14.789 88.555 14.1314C87.9807 13.7632 87.2836 13.5571 86.5428 13.5571C84.5306 13.5571 82.8472 15.2011 82.8472 17.2527C82.8472 19.3044 84.5306 20.9483 86.5428 20.9483C87.2836 20.9483 87.9807 20.7423 88.555 20.374C89.5808 19.7165 90.2384 18.5679 90.2384 17.2527Z" fill="white"/>
<path fill-rule="evenodd" clip-rule="evenodd" d="M86.2534 9.32695C86.2534 7.31475 84.57 5.63135 82.514 5.63135C80.4579 5.63135 78.8184 7.31475 78.8184 9.32695C78.8184 11.3391 80.5018 13.0664 82.514 13.0664C84.5262 13.0664 86.2534 11.383 86.2534 9.32695Z" fill="white"/>
<path fill-rule="evenodd" clip-rule="evenodd" d="M67.1134 36.2304C67.5255 34.6303 67.3195 33.6001 66.4558 33.0697C65.5922 32.3288 64.6891 32.1228 63.7028 32.3726C63.4967 32.4559 63.2512 32.5392 63.0057 32.662C60.542 35.2923 58.0783 37.9182 55.6145 40.5486C52.9447 37.9182 50.3977 35.415 47.7279 32.7847C46.7854 32.1271 45.6763 32.2937 44.8521 32.7847C44.6461 32.9469 44.44 33.0741 44.2778 33.2757C43.3748 34.5076 43.252 35.8622 43.949 36.9713C44.2384 37.2606 44.5672 37.5894 44.8521 37.9182C47.5614 40.8773 50.3144 43.7926 53.0237 46.7079V57.7552C53.7207 59.2326 54.6676 59.934 55.8162 59.8069C57.2935 59.8069 58.0739 59.1099 58.6087 57.9569V46.4975C60.2921 44.4458 62.0194 42.3898 63.7028 40.3381C64.8513 38.9835 65.9605 37.5851 67.1134 36.2304Z" fill="white"/>
<path fill-rule="evenodd" clip-rule="evenodd" d="M74.6315 48.2249C74.0572 48.2249 73.4829 48.2249 72.9087 48.2643C73.4435 47.3174 74.0178 46.4582 74.6315 45.6778C75.1225 45.0203 75.7012 44.4065 76.3149 43.7884C76.3149 45.2657 76.3544 46.7475 76.3544 48.2249H74.6271H74.6315ZM80.1771 31.838C78.8225 31.5092 77.7967 31.9212 77.0953 32.9865C76.2316 33.9729 75.4513 34.9987 74.6315 36.0245C70.8526 40.9126 67.2798 45.9233 63.7069 50.9735C62.5583 52.5737 61.4054 54.1782 60.2568 55.8177C59.8886 57.2162 60.2568 58.3253 61.3265 59.1056C62.1068 59.5966 62.9266 59.8027 63.7069 59.7238C64.119 59.6843 64.5705 59.5177 65.0221 59.2722C66.3372 57.545 67.6524 55.8221 69.007 54.0949H76.5254V57.6677C77.0163 59.0223 78.0466 59.7632 79.6072 59.7632C81.1679 59.7632 82.1148 58.9829 82.4392 57.4222V34.0913C82.2332 32.6534 81.4967 31.873 80.1815 31.8336L80.1771 31.838Z" fill="white"/>
<path fill-rule="evenodd" clip-rule="evenodd" d="M32.4062 53.766C28.2591 53.766 24.9317 50.3554 24.9317 46.2477C24.9317 42.14 28.2591 38.7732 32.4062 38.7732C36.5533 38.7732 39.8807 42.14 39.8807 46.2477C39.8807 50.3554 36.5139 53.766 32.4062 53.766ZM32.4062 32.4473C25.8348 32.4473 20.2892 37.0065 18.8951 43.1658C18.6891 44.1522 18.5269 45.178 18.5269 46.2477C18.5269 47.3173 18.6934 48.3432 18.8951 49.369C20.2936 55.5283 25.8348 60.0876 32.4062 60.0876C37.8685 60.0876 42.6732 56.883 44.8915 52.2404C45.7551 50.4343 46.2461 48.3782 46.2461 46.2433C46.2461 44.1084 45.7551 42.0962 44.8915 40.29C42.6732 35.6475 37.8685 32.4429 32.4062 32.4429V32.4473Z" fill="white"/>
<path fill-rule="evenodd" clip-rule="evenodd" d="M8.99629 44.8144C7.26904 44.8144 5.87497 43.4598 5.87497 41.7325C5.87497 40.0053 7.27343 38.5718 8.99629 38.5718C10.7191 38.5718 12.1176 40.0097 12.1176 41.7325C12.1176 43.4554 10.7191 44.8144 8.99629 44.8144ZM18.8951 55.9056C17.4572 53.7706 15.9798 51.6313 14.5419 49.4964C15.2389 48.6766 15.9798 47.8963 16.7207 47.0721C17.8298 45.2221 18.4041 43.2537 18.2419 41.075C17.8736 38.4446 17.01 36.4324 15.4888 35.2006C13.8887 33.5566 11.8765 32.6141 9.28562 32.6535C9.16287 32.6535 9.07958 32.693 8.99629 32.693C6.94464 32.9823 5.05519 33.5961 3.24465 34.9945C1.84619 36.2264 0.820368 37.7038 0.0400391 39.8431C0.162787 45.5114 0.285536 51.2192 0.408284 56.9314C0.737075 59.2329 1.84619 60.3815 3.61289 60.3421C5.0508 60.3026 5.95388 59.4784 6.40542 57.9616C6.40542 55.5812 6.48871 53.1569 6.52817 50.7326C6.36596 50.4038 6.48871 50.1145 6.8175 49.9523C7.59783 50.1145 7.76442 50.6932 8.04937 51.1842C8.33871 51.6357 8.6675 52.0039 8.99629 52.3766C10.9252 54.8403 12.8979 57.2646 14.8268 59.6889C16.1815 60.307 17.3344 60.2237 18.3602 59.3995C18.5663 59.154 18.7723 58.8647 18.8951 58.5797C19.3072 57.76 19.3861 56.8963 18.9345 55.9933C18.9345 55.967 18.9214 55.9392 18.8951 55.91V55.9056Z" fill="white"/>
<path fill-rule="evenodd" clip-rule="evenodd" d="M188.073 31.7938C186.429 31.7938 185.28 32.5347 184.952 34.4636V57.0932C185.486 58.9432 186.596 59.478 187.95 59.4342C189.428 59.3947 190.703 58.8599 191.44 57.0932V34.297C190.949 32.5303 189.879 31.7105 188.073 31.7938Z" fill="white"/>
<path fill-rule="evenodd" clip-rule="evenodd" d="M214.074 31.5879C212.636 31.6712 211.733 32.4077 211.281 33.6001V47.1112C208.366 42.2626 205.407 37.3746 202.492 32.5699C201.505 31.5835 200.19 31.338 198.467 31.8728C197.192 32.3244 196.416 33.2275 196.043 34.5426V57.1722C196.126 58.6495 197.113 59.3071 199.081 59.2677C200.602 59.1449 201.545 58.4479 201.913 57.1722C201.913 52.4507 201.913 47.7249 201.874 43.0035C204.749 47.931 207.625 52.8628 210.457 57.7508C211.115 58.7767 212.101 59.3948 213.824 59.1449C215.468 59.0616 216.494 58.1585 217.112 56.6812V33.6395C216.538 32.2411 215.512 31.5879 214.074 31.5879Z" fill="white"/>
<path fill-rule="evenodd" clip-rule="evenodd" d="M177.727 31.8335C176.289 31.9168 175.386 32.6533 174.935 33.8457V47.3612C172.019 42.4732 169.06 37.6246 166.145 32.7804C165.202 31.8335 163.843 31.588 162.121 32.1228C160.889 32.5349 160.069 33.438 159.696 34.7926V57.4265C159.78 58.9039 160.766 59.5615 162.734 59.522C164.256 59.3993 165.198 58.6584 165.566 57.4265C165.566 52.7007 165.566 47.9793 165.527 43.2579C168.403 48.1853 171.278 53.0734 174.154 58.0008C174.772 58.9872 175.754 59.6448 177.482 59.3554C179.126 59.316 180.151 58.4129 180.77 56.9312V33.8895C180.195 32.4955 179.209 31.8379 177.732 31.8379L177.727 31.8335Z" fill="white"/>
<path fill-rule="evenodd" clip-rule="evenodd" d="M130.776 50.5659C129.009 52.372 127.203 53.3978 125.519 53.6039C123.262 53.9327 121.451 53.5206 120.263 52.4553C118.703 51.2629 117.633 49.7855 117.181 48.0583C116.813 46.4976 116.813 44.8537 117.265 43.1308C117.799 41.5701 118.786 40.3777 120.263 39.4747C121.578 38.611 123.095 38.2822 124.656 38.2822C126.708 38.3655 128.395 39.3519 129.873 40.5005C131.394 41.5701 132.582 41.5701 133.98 40.5838C134.927 39.3081 135.173 37.9973 134.103 36.3928C133.735 35.8185 131.924 32.1229 124.288 31.9563C116.647 31.7897 110.443 38.1595 110.443 45.7567C110.443 53.354 116.647 59.6405 124.288 59.6405C131.929 59.6405 133.818 55.9843 134.638 54.5902C135.212 53.2356 135.089 52.0432 134.27 51.1796C133.327 50.316 132.258 49.9872 130.78 50.5615L130.776 50.5659Z" fill="white"/>
<path fill-rule="evenodd" clip-rule="evenodd" d="M144.331 48.2249H142.608C142.608 46.7475 142.647 45.2658 142.647 43.7884C143.222 44.4065 143.796 45.0203 144.331 45.6779C144.949 46.4582 145.479 47.3218 146.014 48.2643C145.44 48.2249 144.865 48.2249 144.331 48.2249ZM144.331 36.0246C143.511 34.9987 142.687 33.9729 141.867 32.9866C141.126 31.9169 140.144 31.5092 138.785 31.838C137.47 31.8774 136.69 32.6578 136.527 34.0957V57.4266C136.817 58.9873 137.759 59.7676 139.32 59.7676C140.881 59.7676 141.906 59.0267 142.402 57.6721V54.0993H149.96C151.275 55.8221 152.59 57.5494 153.944 59.2766C155.137 59.9342 156.408 59.8948 157.64 59.11C158.71 58.3297 159.039 57.2206 158.71 55.8221C153.988 49.1674 149.302 42.5127 144.335 36.0246H144.331Z" fill="white"/>
<path fill-rule="evenodd" clip-rule="evenodd" d="M99.44 53.4812H92.2505V34.1352C92.1672 31.1366 86.2139 31.1366 86.2139 34.1352V57.5889C86.2972 58.5752 86.6654 59.1101 87.323 59.189H99.44C102.522 59.1495 102.601 53.3584 99.44 53.4812Z" fill="white"/>
</svg>
