<svg width="233" height="233" viewBox="0 0 233 233" fill="none" xmlns="http://www.w3.org/2000/svg">
<g clip-path="url(#clip0_104_83)" filter="url(#filter0_f_104_83)">
<path d="M163.041 175.043C163.47 165.764 158.489 158.964 153.683 152.394C149.501 146.674 145.554 141.27 144.481 133.995C141.557 113.861 140.307 101.92 124.744 95.642C109.181 89.3643 99.9775 97.0929 83.8819 109.547C78.0533 114.054 71.4329 115.202 64.4438 116.423C56.4224 117.824 48.1343 119.259 42.0015 126.219C39.7083 128.696 37.8949 131.577 36.6536 134.716C31.3309 147.911 37.5102 162.888 49.1542 167.585C60.7982 172.282 78.5065 172.597 91.6081 177.882C104.71 183.167 117.467 195.141 129.257 199.896C141.046 204.652 155.706 198.081 161.029 184.886C162.302 181.757 162.984 178.42 163.041 175.043Z" fill="#F8F3E3"/>
<path d="M52.5852 102.688C62.6026 106.729 74.9348 99.5639 80.1301 86.6844C85.3253 73.8049 81.4162 60.0884 71.3988 56.0476C61.3814 52.0069 49.0492 59.1721 43.8539 72.0516C38.6587 84.9311 42.5678 98.6477 52.5852 102.688Z" fill="#F8F3E3"/>
<path d="M101.405 86.2275C111.422 90.2682 123.754 83.103 128.949 70.2235C134.145 57.344 130.236 43.6274 120.218 39.5867C110.201 35.5459 97.8685 42.7112 92.6732 55.5907C87.478 68.4702 91.3871 82.1867 101.405 86.2275Z" fill="#F8F3E3"/>
<path d="M148.045 105.041C158.063 109.082 170.395 101.916 175.59 89.037C180.785 76.1575 176.876 62.4409 166.859 58.4002C156.841 54.3594 144.509 61.5246 139.314 74.4041C134.119 87.2836 138.028 101 148.045 105.041Z" fill="#F8F3E3"/>
<path d="M171.779 150.768C181.796 154.809 194.128 147.643 199.323 134.764C204.519 121.884 200.61 108.168 190.592 104.127C180.575 100.086 168.243 107.251 163.047 120.131C157.852 133.01 161.761 146.727 171.779 150.768Z" fill="#F8F3E3"/>
</g>
<defs>
<filter id="filter0_f_104_83" x="-2" y="-2" width="236.727" height="236.727" filterUnits="userSpaceOnUse" color-interpolation-filters="sRGB">
<feFlood flood-opacity="0" result="BackgroundImageFix"/>
<feBlend mode="normal" in="SourceGraphic" in2="BackgroundImageFix" result="shape"/>
<feGaussianBlur stdDeviation="1" result="effect1_foregroundBlur_104_83"/>
</filter>
<clipPath id="clip0_104_83">
<rect width="178.817" height="178.817" fill="white" transform="translate(66.8926) rotate(21.9678)"/>
</clipPath>
</defs>
</svg>
