<svg width="391" height="400" viewBox="0 0 391 400" fill="none" xmlns="http://www.w3.org/2000/svg">
<g filter="url(#filter0_f_1_977)">
<path d="M313.326 241.753C317.265 253.63 318.679 267.981 310.58 278.192C291.057 302.799 256.614 289.612 229.144 297.679C205.679 304.569 181.759 335.258 155.797 328.185C140.44 324.003 130.687 310.383 126.176 296.726C120.002 278.029 127.503 258.45 142.152 240.486C148.065 233.226 150.479 212.748 156.501 196.066C162.522 179.384 172.757 166.498 184.671 162.996C201.17 158.152 215.788 163.206 228.163 172.567C242.64 183.527 254.209 199.755 264.621 203.465C286.762 211.335 306.13 219.957 313.326 241.753Z" fill="#F8F3E3"/>
<path d="M108.516 172.338C90.4371 152.048 64.9366 145.513 51.5594 157.741C38.1822 169.969 41.9941 196.331 60.0733 216.621C78.1526 236.911 103.653 243.446 117.03 231.217C130.407 218.989 126.596 192.627 108.516 172.338Z" fill="#F8F3E3"/>
<path d="M101.667 62.3935C84.4898 69.4788 80.3086 97.3512 92.3276 124.648C104.347 151.945 128.015 168.331 145.191 161.245C162.368 154.16 166.55 126.288 154.531 98.9904C142.512 71.6933 118.844 55.3082 101.667 62.3935Z" fill="#F8F3E3"/>
<path d="M290.793 87.4272C272.42 84.5244 255.362 103.559 252.694 129.943C250.026 156.327 262.757 180.068 281.131 182.971C299.504 185.874 316.561 166.839 319.23 140.455C321.898 114.072 309.166 90.3301 290.793 87.4272Z" fill="#F8F3E3"/>
<path d="M192.154 35.9933C173.749 39.359 164.129 65.521 170.668 94.4278C177.207 123.335 197.428 144.04 215.833 140.674C234.238 137.308 243.857 111.146 237.319 82.2395C230.78 53.3328 210.559 32.6276 192.154 35.9933Z" fill="#F8F3E3"/>
</g>
<defs>
<filter id="filter0_f_1_977" x="41.5703" y="33.6348" width="280.013" height="297.602" filterUnits="userSpaceOnUse" color-interpolation-filters="sRGB">
<feFlood flood-opacity="0" result="BackgroundImageFix"/>
<feBlend mode="normal" in="SourceGraphic" in2="BackgroundImageFix" result="shape"/>
<feGaussianBlur stdDeviation="1" result="effect1_foregroundBlur_1_977"/>
</filter>
</defs>
</svg>
