<svg width="2279" height="2076" viewBox="0 0 2279 2076" fill="none" xmlns="http://www.w3.org/2000/svg">
<g clip-path="url(#clip0_1_3396)" filter="url(#filter0_f_1_3396)">
<path d="M62.581 1015.35C56.9088 1017.42 49.8917 1018.33 44.409 1014.63C31.1972 1005.73 35.8815 989.096 30.4213 976.136C25.767 965.063 9.309 954.16 11.418 941.673C12.6835 934.289 18.8798 929.415 25.3948 927.044C34.3137 923.803 44.3966 927.061 54.0649 933.75C57.9723 936.453 68.2455 937.273 76.7994 939.872C85.3534 942.472 92.2917 947.144 94.6611 952.772C97.9518 960.558 96.2184 967.614 92.2392 973.652C87.5922 980.73 80.1782 986.525 78.9045 991.528C76.2082 1002.2 72.9757 1011.57 62.581 1015.35Z" fill="#F8F3E3"/>
<path d="M85.9219 916.658C94.9922 907.714 96.8633 895.455 90.101 889.277C83.3386 883.098 70.5036 885.34 61.4332 894.284C52.3628 903.227 50.4918 915.486 57.2542 921.665C64.0165 927.844 76.8515 925.602 85.9219 916.658Z" fill="#F8F3E3"/>
<path d="M124.693 937.3C137.552 931.129 144.39 919.584 139.967 911.512C135.544 903.44 121.535 901.899 108.677 908.07C95.8182 914.24 88.9796 925.786 93.4024 933.858C97.8252 941.929 111.835 943.471 124.693 937.3Z" fill="#F8F3E3"/>
<path d="M112.889 1016.53C126.081 1017.38 137.144 1010.93 137.599 1002.12C138.054 993.319 127.728 985.496 114.536 984.65C101.344 983.804 90.2813 990.254 89.8263 999.058C89.3713 1007.86 99.6967 1015.68 112.889 1016.53Z" fill="#F8F3E3"/>
<path d="M137.391 976.579C151.339 972.997 160.501 963.025 157.853 954.308C155.206 945.59 141.753 941.427 127.804 945.009C113.856 948.592 104.695 958.563 107.342 967.281C109.989 975.999 123.442 980.162 137.391 976.579Z" fill="#F8F3E3"/>
<path d="M309.303 837.631C303.271 838.466 296.183 837.904 291.659 833.178C280.753 821.792 289.161 806.598 286.784 792.873C284.758 781.146 271.15 767.153 276.069 755.45C278.986 748.527 286.194 745.08 293.123 744.121C302.597 742.808 311.748 748.042 319.686 756.555C322.894 759.987 332.767 762.918 340.562 767.202C348.357 771.486 354.077 777.465 355.126 783.421C356.551 791.681 353.252 798.159 347.975 803.22C341.796 809.139 333.207 813.224 330.804 817.845C325.676 827.661 320.361 836.1 309.303 837.631Z" fill="#F8F3E3"/>
<path d="M354.852 746.528C365.795 739.708 370.442 728.179 365.232 720.778C360.022 713.376 346.928 712.905 335.986 719.726C325.044 726.546 320.396 738.075 325.606 745.476C330.816 752.878 343.91 753.349 354.852 746.528Z" fill="#F8F3E3"/>
<path d="M388.066 774.582C402.084 771.239 411.437 761.429 408.954 752.67C406.472 743.912 393.095 739.521 379.076 742.864C365.058 746.207 355.705 756.017 358.188 764.776C360.67 773.534 374.047 777.924 388.066 774.582Z" fill="#F8F3E3"/>
<path d="M385.972 840.34C388.439 831.877 380.114 822.142 367.379 818.595C354.644 815.049 342.32 819.035 339.854 827.498C337.388 835.961 345.712 845.696 358.448 849.242C371.183 852.789 383.506 848.803 385.972 840.34Z" fill="#F8F3E3"/>
<path d="M391.519 815.398C406.012 814.795 417.279 806.995 416.685 797.975C416.092 788.955 403.861 782.132 389.368 782.734C374.876 783.336 363.608 791.136 364.202 800.156C364.796 809.176 377.026 816 391.519 815.398Z" fill="#F8F3E3"/>
<path d="M373.648 537.429C369.114 541.24 365.061 546.696 366.079 552.967C368.524 568.071 386.421 571.703 396.233 582.159C404.616 591.091 407.485 609.813 420.282 613.718C427.856 616.029 435.295 613.037 440.5 608.66C447.629 602.667 449.116 592.748 447.166 581.617C446.396 577.112 450.245 568.145 451.676 559.798C453.106 551.451 451.82 543.531 447.564 538.993C441.671 532.715 434.208 530.951 426.667 531.528C417.844 532.202 409.001 535.788 403.66 534.571C392.307 531.998 381.955 530.447 373.648 537.429Z" fill="#F8F3E3"/>
<path d="M118.475 609.581C113.733 613.13 109.38 618.35 110.044 624.668C111.636 639.885 129.3 644.518 138.509 655.509C146.376 664.898 148.188 683.752 160.745 688.371C168.177 691.104 175.772 688.535 181.216 684.458C188.67 678.875 190.713 669.056 189.392 657.832C188.876 653.292 193.224 644.555 195.121 636.301C197.019 628.048 196.18 620.068 192.186 615.299C186.656 608.698 179.303 606.518 171.741 606.67C162.895 606.847 153.864 609.93 148.6 608.414C137.41 605.207 127.162 603.076 118.475 609.581Z" fill="#F8F3E3"/>
<path d="M488.054 593.332C500.655 589.802 508.61 580.077 505.823 571.61C503.035 563.144 490.56 559.142 477.959 562.672C465.358 566.202 457.403 575.927 460.191 584.394C462.979 592.86 475.454 596.862 488.054 593.332Z" fill="#F8F3E3"/>
<path d="M229.556 671.828C242.336 669.012 250.825 659.75 248.518 651.14C246.211 642.531 233.981 637.834 221.201 640.65C208.422 643.465 199.933 652.728 202.24 661.337C204.547 669.947 216.777 674.644 229.556 671.828Z" fill="#F8F3E3"/>
<path d="M496.253 547.528C507.943 539.565 512.842 527.139 507.195 519.772C501.548 512.405 487.494 512.887 475.804 520.849C464.114 528.812 459.215 541.238 464.862 548.605C470.509 555.972 484.563 555.49 496.253 547.528Z" fill="#F8F3E3"/>
<path d="M240.318 626.557C252.437 619.265 258.027 607.134 252.803 599.461C247.58 591.788 233.521 591.479 221.401 598.771C209.282 606.064 203.692 618.195 208.916 625.868C214.139 633.541 228.199 633.85 240.318 626.557Z" fill="#F8F3E3"/>
<path d="M426.403 507.785C431.592 496.359 428.863 484.163 420.308 480.546C411.753 476.928 400.612 483.258 395.423 494.685C390.234 506.111 392.962 518.306 401.517 521.924C410.072 525.541 421.214 519.211 426.403 507.785Z" fill="#F8F3E3"/>
<path d="M172.813 582.95C178.637 571.833 176.598 559.504 168.26 555.411C159.922 551.318 148.442 557.011 142.619 568.128C136.795 579.244 138.834 591.574 147.172 595.667C155.51 599.76 166.99 594.066 172.813 582.95Z" fill="#F8F3E3"/>
<path d="M470.013 514.753C479.745 504.706 481.907 491.554 474.843 485.379C467.778 479.204 454.162 482.344 444.43 492.391C434.697 502.439 432.535 515.591 439.599 521.766C446.664 527.941 460.28 524.801 470.013 514.753Z" fill="#F8F3E3"/>
<path d="M215.962 592.359C226.244 582.875 229.143 569.866 222.436 563.303C215.73 556.741 201.959 559.109 191.677 568.594C181.395 578.079 178.496 591.088 185.202 597.65C191.909 604.213 205.68 601.844 215.962 592.359Z" fill="#F8F3E3"/>
<path d="M582.456 707.836C576.449 706.661 569.944 703.841 567.364 697.962C561.142 683.799 574.568 672.337 577.262 658.755C579.563 647.15 571.712 629.674 580.597 620.337C585.847 614.82 593.911 613.936 600.814 615.286C610.264 617.132 617.019 624.987 621.473 635.497C623.27 639.741 631.561 645.676 637.396 652.197C643.232 658.717 646.491 666.145 645.322 672.048C643.705 680.202 638.243 685.199 631.425 688.213C623.447 691.74 613.848 692.77 609.912 696.304C601.542 703.83 593.488 709.989 582.456 707.836Z" fill="#F8F3E3"/>
<path d="M658.401 637.518C671.211 634.695 679.759 625.437 677.493 616.84C675.227 608.243 663.006 603.563 650.196 606.387C637.386 609.21 628.838 618.469 631.104 627.065C633.37 635.662 645.591 640.342 658.401 637.518Z" fill="#F8F3E3"/>
<path d="M679.561 674.561C694.03 675.982 706.413 669.855 707.218 660.874C708.023 651.894 696.946 643.462 682.477 642.041C668.008 640.619 655.626 646.747 654.82 655.727C654.015 664.707 665.092 673.14 679.561 674.561Z" fill="#F8F3E3"/>
<path d="M654.048 735.145C659.429 728.044 655.055 716.259 644.281 708.825C633.506 701.39 620.409 701.12 615.029 708.222C609.649 715.324 614.022 727.108 624.797 734.543C635.572 741.978 648.668 742.247 654.048 735.145Z" fill="#F8F3E3"/>
<path d="M698.399 705.578C701.084 696.965 691.967 686.634 678.035 682.503C664.103 678.372 650.633 682.005 647.948 690.618C645.263 699.231 654.381 709.562 668.312 713.693C682.244 717.824 695.714 714.191 698.399 705.578Z" fill="#F8F3E3"/>
<path d="M751.422 448.425C745.76 450.516 739.959 454.299 738.665 460.48C735.542 475.373 751.169 484.559 756.691 497.497C761.406 508.551 757.381 526.956 768.09 534.749C774.423 539.357 782.54 538.974 789.04 536.575C797.943 533.291 802.924 524.51 805.083 513.489C805.954 509.036 812.848 501.91 817.209 494.589C821.57 487.269 823.203 479.449 820.808 473.838C817.492 466.066 811.062 462.002 803.722 460.099C795.131 457.873 785.472 458.349 780.852 455.487C771.033 449.407 761.798 444.599 751.422 448.425Z" fill="#F8F3E3"/>
<path d="M839.461 537.76C852.656 538.548 863.685 532.047 864.097 523.241C864.508 514.434 854.145 506.657 840.95 505.87C827.755 505.082 816.725 511.583 816.314 520.389C815.903 529.196 826.266 536.973 839.461 537.76Z" fill="#F8F3E3"/>
<path d="M863.751 497.674C877.68 494.029 886.791 484.016 884.101 475.309C881.41 466.603 867.938 462.5 854.009 466.145C840.079 469.79 830.968 479.803 833.659 488.509C836.349 497.216 849.822 501.319 863.751 497.674Z" fill="#F8F3E3"/>
<path d="M812.037 437.964C821.062 428.979 822.872 416.71 816.079 410.562C809.287 404.413 796.464 406.712 787.439 415.697C778.414 424.682 776.604 436.951 783.397 443.099C790.189 449.248 803.012 446.949 812.037 437.964Z" fill="#F8F3E3"/>
<path d="M850.775 458.414C863.602 452.186 870.382 440.608 865.92 432.556C861.457 424.503 847.442 423.025 834.615 429.253C821.788 435.482 815.008 447.059 819.47 455.111C823.933 463.164 837.948 464.643 850.775 458.414Z" fill="#F8F3E3"/>
<path d="M873.811 696.256C868.382 693.504 862.978 689.032 862.277 682.732C860.59 667.547 877.001 660.302 883.724 648.107C889.467 637.689 887.214 618.898 898.603 612.447C905.338 608.631 913.372 609.993 919.608 613.164C928.145 617.506 932.261 626.836 933.356 638.057C933.801 642.59 939.982 650.489 943.617 658.312C947.252 666.135 948.132 674.091 945.217 679.382C941.18 686.707 934.4 689.968 926.92 690.975C918.167 692.15 908.612 690.509 903.746 692.794C893.404 697.661 883.762 701.318 873.811 696.256Z" fill="#F8F3E3"/>
<path d="M968.316 650.07C981.51 650.883 992.554 644.405 992.985 635.6C993.416 626.794 983.069 618.997 969.876 618.183C956.682 617.37 945.637 623.848 945.207 632.653C944.776 641.459 955.123 649.256 968.316 650.07Z" fill="#F8F3E3"/>
<path d="M1008.34 685.69C1011.85 677.359 1003.74 666.301 990.243 660.992C976.741 655.683 962.956 658.132 959.451 666.463C955.946 674.794 964.05 685.851 977.551 691.16C991.053 696.47 1004.84 694.02 1008.34 685.69Z" fill="#F8F3E3"/>
<path d="M934.457 741.83C941.796 736.539 941.166 724.122 933.05 714.097C924.934 704.072 912.404 700.235 905.065 705.526C897.726 710.818 898.356 723.234 906.472 733.259C914.589 743.284 927.118 747.121 934.457 741.83Z" fill="#F8F3E3"/>
<path d="M986.138 725.803C991.341 718.336 985.701 706.006 973.541 698.264C961.381 690.521 947.306 690.298 942.103 697.765C936.9 705.232 942.54 717.561 954.7 725.304C966.86 733.046 980.936 733.27 986.138 725.803Z" fill="#F8F3E3"/>
<path d="M1115.35 495.447C1109.27 495.887 1102.53 497.903 1099.41 503.435C1091.87 516.763 1104.14 529.786 1105.51 543.613C1106.7 555.425 1097.23 571.854 1105.17 582.18C1109.87 588.301 1117.8 590.174 1124.79 589.649C1134.36 588.953 1141.83 581.957 1147.26 572.05C1149.45 568.053 1158.25 563.149 1164.68 557.374C1171.1 551.599 1175.05 544.576 1174.45 538.595C1173.62 530.29 1168.66 524.664 1162.17 520.844C1154.57 516.372 1145.13 514.189 1141.55 510.198C1133.94 501.734 1126.5 494.654 1115.35 495.447Z" fill="#F8F3E3"/>
<path d="M1191.18 598.251C1194.2 590.01 1186.58 579.855 1174.16 575.57C1161.74 571.285 1149.23 574.492 1146.21 582.734C1143.19 590.975 1150.81 601.129 1163.23 605.414C1175.64 609.699 1188.16 606.492 1191.18 598.251Z" fill="#F8F3E3"/>
<path d="M1208.56 573.065C1223.08 573.403 1234.89 566.359 1234.95 557.333C1235.01 548.308 1223.28 540.717 1208.76 540.38C1194.24 540.043 1182.42 547.086 1182.36 556.112C1182.31 565.137 1194.04 572.728 1208.56 573.065Z" fill="#F8F3E3"/>
<path d="M1176.92 502.08C1188.34 495.992 1193.81 484.805 1189.14 477.093C1184.46 469.382 1171.42 468.065 1160 474.153C1148.57 480.241 1143.1 491.428 1147.78 499.14C1152.45 506.852 1165.49 508.168 1176.92 502.08Z" fill="#F8F3E3"/>
<path d="M1212.41 532.848C1226.7 530.414 1236.77 521.214 1234.91 512.3C1233.06 503.385 1219.97 498.132 1205.68 500.566C1191.4 503.001 1181.32 512.201 1183.18 521.115C1185.03 530.029 1198.12 535.282 1212.41 532.848Z" fill="#F8F3E3"/>
<path d="M1248.64 778.921C1242.71 777.409 1236.39 774.23 1234.18 768.226C1228.85 753.754 1242.99 743.084 1246.54 729.692C1249.56 718.252 1242.82 700.385 1252.29 691.591C1257.89 686.384 1266 685.961 1272.82 687.697C1282.14 690.071 1288.4 698.289 1292.19 709.017C1293.72 713.35 1301.63 719.745 1307.05 726.57C1312.47 733.394 1315.26 741.003 1313.72 746.811C1311.59 754.852 1305.82 759.525 1298.82 762.141C1290.63 765.208 1280.97 765.692 1276.82 768.992C1267.96 776.009 1259.52 781.693 1248.64 778.921Z" fill="#F8F3E3"/>
<path d="M1328.95 713.162C1341.93 711.071 1351.06 702.324 1349.33 693.624C1347.61 684.923 1335.69 679.565 1322.71 681.656C1309.73 683.746 1300.61 692.494 1302.33 701.194C1304.05 709.894 1315.97 715.252 1328.95 713.162Z" fill="#F8F3E3"/>
<path d="M1347.92 751.079C1362.29 753.313 1375.05 747.902 1376.42 738.993C1377.79 730.084 1367.25 721.051 1352.88 718.817C1338.51 716.583 1325.75 721.995 1324.38 730.904C1323.01 739.812 1333.55 748.845 1347.92 751.079Z" fill="#F8F3E3"/>
<path d="M1318.5 810.248C1324.32 803.471 1320.69 791.474 1310.39 783.451C1300.09 775.428 1287.02 774.418 1281.2 781.194C1275.37 787.971 1279 799.969 1289.3 807.992C1299.6 816.015 1312.67 817.025 1318.5 810.248Z" fill="#F8F3E3"/>
<path d="M1364.67 783.26C1367.89 774.824 1359.43 764.007 1345.77 759.1C1332.11 754.192 1318.42 757.053 1315.19 765.489C1311.97 773.925 1320.43 784.742 1334.09 789.649C1347.75 794.557 1361.44 791.696 1364.67 783.26Z" fill="#F8F3E3"/>
<path d="M1433.8 529.826C1428.02 531.589 1421.98 535.033 1420.3 541.122C1416.25 555.797 1431.29 565.841 1435.99 579.054C1440.01 590.343 1434.83 608.469 1445.04 616.843C1451.08 621.795 1459.21 621.873 1465.86 619.847C1474.97 617.078 1480.51 608.608 1483.35 597.736C1484.48 593.344 1491.84 586.631 1496.66 579.579C1501.47 572.526 1503.59 564.818 1501.55 559.09C1498.73 551.154 1492.56 546.738 1485.34 544.426C1476.9 541.718 1467.22 541.648 1462.78 538.53C1453.34 531.899 1444.41 526.59 1433.8 529.826Z" fill="#F8F3E3"/>
<path d="M1516.29 623.703C1529.43 625.232 1540.86 619.373 1541.82 610.615C1542.78 601.857 1532.91 593.518 1519.78 591.988C1506.64 590.458 1495.21 596.318 1494.25 605.076C1493.28 613.833 1503.15 622.173 1516.29 623.703Z" fill="#F8F3E3"/>
<path d="M1542.97 585.349C1557.12 582.503 1566.85 573.035 1564.71 564.201C1562.57 555.367 1549.36 550.514 1535.21 553.36C1521.07 556.206 1511.33 565.675 1513.47 574.508C1515.61 583.342 1528.82 588.196 1542.97 585.349Z" fill="#F8F3E3"/>
<path d="M1494.97 522.631C1504.55 514.181 1507.13 502.05 1500.73 495.536C1494.33 489.022 1481.37 490.591 1471.79 499.041C1462.21 507.491 1459.63 519.622 1466.03 526.136C1472.43 532.65 1485.39 531.081 1494.97 522.631Z" fill="#F8F3E3"/>
<path d="M1532.45 545.405C1545.66 539.92 1553.16 528.76 1549.21 520.479C1545.26 512.197 1531.34 509.929 1518.13 515.414C1504.92 520.899 1497.42 532.058 1501.37 540.34C1505.32 548.622 1519.24 550.89 1532.45 545.405Z" fill="#F8F3E3"/>
<path d="M1610.83 768.202C1604.72 767.845 1597.88 765.922 1594.45 760.437C1586.19 747.219 1597.73 734.034 1598.36 720.193C1598.9 708.366 1588.54 692.077 1595.91 681.625C1600.27 675.448 1608.1 673.478 1615.11 673.889C1624.72 674.442 1632.56 681.344 1638.53 691.17C1640.93 695.141 1650.01 699.915 1656.75 705.588C1663.49 711.262 1667.82 718.22 1667.54 724.222C1667.17 732.538 1662.52 738.231 1656.24 742.137C1648.91 746.71 1639.57 749.024 1636.21 753.061C1629.07 761.661 1622.02 768.86 1610.83 768.202Z" fill="#F8F3E3"/>
<path d="M1675.31 688.291C1687.53 683.766 1694.59 673.427 1691.07 665.199C1687.54 656.971 1674.78 653.97 1662.55 658.495C1650.33 663.021 1643.27 673.359 1646.8 681.587C1650.32 689.815 1663.08 692.817 1675.31 688.291Z" fill="#F8F3E3"/>
<path d="M1701.82 721.929C1716.31 721.392 1727.62 713.643 1727.07 704.621C1726.52 695.599 1714.32 688.722 1699.83 689.259C1685.33 689.796 1674.02 697.546 1674.57 706.567C1675.12 715.589 1687.32 722.467 1701.82 721.929Z" fill="#F8F3E3"/>
<path d="M1685.66 785.739C1689.91 777.966 1683.83 766.858 1672.08 760.928C1660.33 754.997 1647.36 756.491 1643.11 764.264C1638.86 772.036 1644.94 783.145 1656.69 789.075C1668.44 795.005 1681.41 793.511 1685.66 785.739Z" fill="#F8F3E3"/>
<path d="M1696.44 762.526C1710.81 764.752 1723.56 759.335 1724.93 750.425C1726.29 741.515 1715.74 732.487 1701.37 730.261C1687 728.034 1674.25 733.452 1672.88 742.361C1671.52 751.271 1682.07 760.299 1696.44 762.526Z" fill="#F8F3E3"/>
<path d="M1738.85 488.002C1733.57 490.836 1728.42 495.37 1728.06 501.679C1727.2 516.88 1744 523.899 1751.39 535.998C1757.71 546.333 1756.48 565.143 1768.21 571.435C1775.15 575.175 1783.11 573.689 1789.17 570.431C1797.47 565.972 1801.07 556.591 1801.56 545.36C1801.76 540.821 1807.5 532.823 1810.71 524.97C1813.92 517.118 1814.36 509.136 1811.16 503.887C1806.72 496.622 1799.76 493.452 1792.23 492.551C1783.42 491.496 1773.95 493.27 1768.98 491.051C1758.37 486.333 1748.52 482.822 1738.85 488.002Z" fill="#F8F3E3"/>
<path d="M1839.19 564.635C1852.34 563.64 1862.25 555.703 1861.34 546.907C1860.43 538.111 1849.03 531.787 1835.89 532.782C1822.74 533.777 1812.83 541.715 1813.74 550.51C1814.65 559.306 1826.05 565.63 1839.19 564.635Z" fill="#F8F3E3"/>
<path d="M1857.15 521.875C1870.36 516.383 1877.86 505.22 1873.9 496.94C1869.94 488.66 1856.03 486.399 1842.82 491.89C1829.61 497.382 1822.11 508.545 1826.07 516.825C1830.03 525.105 1843.94 527.366 1857.15 521.875Z" fill="#F8F3E3"/>
<path d="M1797.02 469.303C1804.59 459.169 1804.54 446.749 1796.91 441.561C1789.29 436.373 1776.97 440.381 1769.41 450.514C1761.84 460.648 1761.89 473.068 1769.52 478.256C1777.14 483.444 1789.46 479.436 1797.02 469.303Z" fill="#F8F3E3"/>
<path d="M1838.41 484.572C1850.15 476.665 1855.11 464.262 1849.5 456.87C1843.89 449.477 1829.83 449.895 1818.1 457.802C1806.37 465.709 1801.41 478.112 1807.02 485.504C1812.62 492.896 1826.68 492.479 1838.41 484.572Z" fill="#F8F3E3"/>
<path d="M1965.37 686.677C1959.32 687.341 1952.24 686.577 1947.87 681.728C1937.32 670.042 1946.21 655.102 1944.27 641.324C1942.61 629.554 1929.43 615.183 1934.73 603.637C1937.87 596.803 1945.19 593.564 1952.15 592.804C1961.68 591.762 1970.66 597.265 1978.32 605.98C1981.42 609.502 1991.21 612.713 1998.86 617.211C2006.52 621.708 2012.07 627.855 2012.9 633.827C2014.07 642.102 2010.56 648.497 2005.12 653.399C1998.74 659.138 1990.03 662.976 1987.49 667.503C1982.07 677.185 1976.48 685.465 1965.37 686.677Z" fill="#F8F3E3"/>
<path d="M2013.79 596.731C2024.95 590.228 2029.96 578.842 2024.99 571.3C2020.01 563.759 2006.93 562.917 1995.77 569.421C1984.61 575.925 1979.6 587.311 1984.58 594.853C1989.56 602.394 2002.64 603.235 2013.79 596.731Z" fill="#F8F3E3"/>
<path d="M2046.09 625.866C2060.22 622.926 2069.88 613.392 2067.67 604.572C2065.47 595.752 2052.23 590.985 2038.1 593.925C2023.98 596.865 2014.31 606.399 2016.52 615.22C2018.72 624.04 2031.96 628.807 2046.09 625.866Z" fill="#F8F3E3"/>
<path d="M2042.11 691.59C2044.84 683.206 2036.83 673.243 2024.2 669.338C2011.58 665.433 1999.13 669.064 1996.39 677.448C1993.66 685.832 2001.67 695.794 2014.3 699.7C2026.92 703.605 2039.37 699.974 2042.11 691.59Z" fill="#F8F3E3"/>
<path d="M2048.32 666.898C2062.83 666.709 2074.35 659.238 2074.04 650.21C2073.73 641.183 2061.72 634.018 2047.2 634.207C2032.69 634.396 2021.17 641.867 2021.48 650.895C2021.79 659.922 2033.81 667.088 2048.32 666.898Z" fill="#F8F3E3"/>
<path d="M2039.22 388.612C2034.57 392.289 2030.35 397.63 2031.16 403.919C2033.13 419.08 2050.91 423.217 2060.39 433.941C2068.5 443.101 2070.77 461.886 2083.45 466.15C2090.95 468.674 2098.49 465.899 2103.83 461.673C2111.15 455.891 2112.95 446.023 2111.35 434.849C2110.7 430.333 2114.86 421.477 2116.56 413.19C2118.26 404.903 2117.22 396.938 2113.1 392.29C2107.41 385.849 2100 383.876 2092.44 384.235C2083.6 384.658 2074.64 387.983 2069.33 386.619C2058.06 383.717 2047.75 381.871 2039.22 388.612Z" fill="#F8F3E3"/>
<path d="M2151.83 447.668C2164.55 444.5 2172.81 435.012 2170.29 426.475C2167.77 417.937 2155.42 413.585 2142.71 416.752C2129.99 419.92 2121.73 429.408 2124.25 437.945C2126.77 446.482 2139.12 450.835 2151.83 447.668Z" fill="#F8F3E3"/>
<path d="M2161.43 402.128C2173.37 394.507 2178.67 382.232 2173.25 374.712C2167.84 367.192 2153.77 367.273 2141.82 374.895C2129.88 382.516 2124.59 394.791 2130 402.311C2135.42 409.831 2149.49 409.749 2161.43 402.128Z" fill="#F8F3E3"/>
<path d="M2092.87 360.499C2098.43 349.232 2096.08 336.971 2087.64 333.114C2079.2 329.256 2067.86 335.263 2062.3 346.53C2056.75 357.797 2059.1 370.057 2067.54 373.915C2075.98 377.772 2087.32 371.766 2092.87 360.499Z" fill="#F8F3E3"/>
<path d="M2136.32 368.715C2146.37 358.955 2148.95 345.878 2142.08 339.508C2135.21 333.138 2121.49 335.887 2111.44 345.648C2101.39 355.408 2098.81 368.484 2105.68 374.854C2112.55 381.224 2126.27 378.476 2136.32 368.715Z" fill="#F8F3E3"/>
</g>
<g clip-path="url(#clip1_1_3396)" filter="url(#filter1_f_1_3396)">
<path d="M2213.07 1051.45C2218.66 1049.17 2225.64 1047.99 2231.26 1051.47C2244.8 1059.87 2240.75 1076.66 2246.7 1089.41C2251.78 1100.29 2268.64 1110.56 2267.01 1123.12C2266.02 1130.55 2260.02 1135.65 2253.6 1138.27C2244.81 1141.85 2234.61 1138.98 2224.69 1132.66C2220.69 1130.11 2210.39 1129.68 2201.74 1127.41C2193.1 1125.14 2185.98 1120.74 2183.4 1115.21C2179.82 1107.55 2181.28 1100.43 2185.02 1094.25C2189.4 1087 2196.58 1080.92 2197.67 1075.88C2199.95 1065.11 2202.83 1055.62 2213.07 1051.45Z" fill="#F8F3E3"/>
<path d="M2193.51 1150.96C2184.79 1160.24 2183.39 1172.56 2190.38 1178.48C2197.37 1184.4 2210.12 1181.67 2218.84 1172.38C2227.56 1163.1 2228.96 1150.78 2221.97 1144.86C2214.97 1138.95 2202.23 1141.68 2193.51 1150.96Z" fill="#F8F3E3"/>
<path d="M2153.98 1131.81C2141.37 1138.47 2134.98 1150.27 2139.7 1158.16C2144.43 1166.06 2158.49 1167.07 2171.1 1160.41C2183.72 1153.75 2190.11 1141.95 2185.38 1134.06C2180.65 1126.16 2166.6 1125.16 2153.98 1131.81Z" fill="#F8F3E3"/>
<path d="M2162.75 1052.19C2149.54 1051.85 2138.73 1058.72 2138.61 1067.53C2138.49 1076.34 2149.11 1083.77 2162.32 1084.11C2175.54 1084.45 2186.35 1077.58 2186.47 1068.77C2186.58 1059.95 2175.97 1052.53 2162.75 1052.19Z" fill="#F8F3E3"/>
<path d="M2139.79 1093.05C2125.99 1097.16 2117.22 1107.47 2120.2 1116.08C2123.17 1124.69 2136.78 1128.34 2150.58 1124.23C2164.38 1120.12 2173.15 1109.8 2170.18 1101.19C2167.2 1092.58 2153.6 1088.93 2139.79 1093.05Z" fill="#F8F3E3"/>
<path d="M2231.15 1358.49C2234.51 1353.69 2236.95 1347.4 2234.31 1341.57C2227.92 1327.5 2209.71 1328.33 2197.47 1320.57C2187.01 1313.94 2179.25 1296.47 2165.87 1295.79C2157.96 1295.39 2151.6 1300.11 2147.75 1305.62C2142.48 1313.17 2143.69 1323.16 2148.54 1333.49C2150.5 1337.66 2149.16 1347.32 2150 1355.76C2150.85 1364.21 2154.21 1371.59 2159.52 1374.95C2166.87 1379.61 2174.53 1379.51 2181.64 1377.11C2189.96 1374.31 2197.52 1368.68 2202.99 1368.56C2214.63 1368.3 2225.03 1367.29 2231.15 1358.49Z" fill="#F8F3E3"/>
<path d="M2106.01 1332.07C2094.81 1338.56 2089.74 1349.94 2094.68 1357.48C2099.63 1365.02 2112.71 1365.87 2123.91 1359.37C2135.11 1352.88 2140.18 1341.5 2135.23 1333.96C2130.29 1326.43 2117.21 1325.58 2106.01 1332.07Z" fill="#F8F3E3"/>
<path d="M2110.32 1378.53C2101.18 1389.11 2099.77 1402.36 2107.18 1408.14C2114.58 1413.91 2127.99 1410.02 2137.13 1399.45C2146.27 1388.88 2147.68 1375.62 2140.27 1369.85C2132.87 1364.07 2119.45 1367.96 2110.32 1378.53Z" fill="#F8F3E3"/>
<path d="M2188.22 1400.11C2186.27 1412.47 2192.16 1423.64 2201.36 1425.07C2210.57 1426.5 2219.61 1417.64 2221.56 1405.29C2223.52 1392.93 2217.63 1381.76 2208.43 1380.33C2199.22 1378.9 2190.18 1387.76 2188.22 1400.11Z" fill="#F8F3E3"/>
<path d="M2144.36 1403.96C2137.66 1416.08 2139.09 1429.38 2147.54 1433.65C2155.99 1437.92 2168.27 1431.56 2174.97 1419.44C2181.67 1407.32 2180.24 1394.03 2171.79 1389.75C2163.34 1385.48 2151.05 1391.84 2144.36 1403.96Z" fill="#F8F3E3"/>
<path d="M1973.31 1238.46C1979.31 1237.39 1986.41 1237.68 1991.11 1242.23C2002.45 1253.19 1994.62 1268.7 1997.52 1282.32C1999.99 1293.96 2014.13 1307.43 2009.66 1319.31C2007.01 1326.34 1999.94 1330.06 1993.05 1331.28C1983.63 1332.95 1974.29 1328.07 1966.03 1319.87C1962.69 1316.56 1952.72 1314.01 1944.76 1310.03C1936.81 1306.04 1930.87 1300.29 1929.59 1294.38C1927.85 1286.18 1930.9 1279.58 1935.98 1274.32C1941.93 1268.17 1950.36 1263.76 1952.58 1259.05C1957.33 1249.04 1962.32 1240.41 1973.31 1238.46Z" fill="#F8F3E3"/>
<path d="M1931.27 1331.23C1920.6 1338.46 1916.39 1350.16 1921.88 1357.36C1927.37 1364.56 1940.47 1364.53 1951.15 1357.29C1961.82 1350.06 1966.03 1338.36 1960.54 1331.17C1955.05 1323.97 1941.95 1324 1931.27 1331.23Z" fill="#F8F3E3"/>
<path d="M1897.01 1304.47C1883.13 1308.34 1874.16 1318.5 1876.98 1327.16C1879.79 1335.82 1893.33 1339.69 1907.21 1335.82C1921.09 1331.94 1930.06 1321.78 1927.24 1313.12C1924.43 1304.47 1910.89 1300.59 1897.01 1304.47Z" fill="#F8F3E3"/>
<path d="M1896.59 1238.68C1894.45 1247.23 1903.14 1256.64 1916 1259.7C1928.87 1262.75 1941.03 1258.3 1943.17 1249.75C1945.31 1241.2 1936.62 1231.79 1923.76 1228.73C1910.9 1225.67 1898.74 1230.13 1896.59 1238.68Z" fill="#F8F3E3"/>
<path d="M1892 1263.81C1877.54 1264.97 1866.58 1273.19 1867.52 1282.18C1868.46 1291.17 1880.94 1297.52 1895.4 1296.37C1909.86 1295.21 1920.82 1286.99 1919.88 1278C1918.94 1269.01 1906.46 1262.66 1892 1263.81Z" fill="#F8F3E3"/>
<path d="M1920.47 1540.9C1924.86 1536.91 1928.7 1531.31 1927.44 1525.08C1924.42 1510.08 1906.4 1507.13 1896.2 1497.06C1887.48 1488.46 1883.9 1469.86 1870.96 1466.44C1863.3 1464.42 1855.98 1467.7 1850.95 1472.27C1844.06 1478.53 1842.95 1488.5 1845.32 1499.55C1846.26 1504.02 1842.76 1513.13 1841.65 1521.52C1840.54 1529.92 1842.13 1537.78 1846.55 1542.15C1852.68 1548.2 1860.2 1549.68 1867.72 1548.82C1876.51 1547.81 1885.21 1543.89 1890.59 1544.9C1902.03 1547.03 1912.44 1548.19 1920.47 1540.9Z" fill="#F8F3E3"/>
<path d="M1804.02 1489.4C1791.56 1493.41 1783.98 1503.43 1787.09 1511.79C1790.2 1520.14 1802.82 1523.66 1815.27 1519.65C1827.73 1515.64 1835.31 1505.62 1832.2 1497.27C1829.09 1488.92 1816.47 1485.39 1804.02 1489.4Z" fill="#F8F3E3"/>
<path d="M1797.57 1535.49C1786.19 1543.89 1781.77 1556.49 1787.7 1563.64C1793.62 1570.78 1807.65 1569.77 1819.02 1561.36C1830.4 1552.96 1834.82 1540.36 1828.9 1533.21C1822.97 1526.06 1808.95 1527.08 1797.57 1535.49Z" fill="#F8F3E3"/>
<path d="M1868.89 1572.53C1864.14 1584.15 1867.33 1596.23 1876.02 1599.52C1884.71 1602.81 1895.6 1596.06 1900.35 1584.44C1905.09 1572.82 1901.9 1560.74 1893.22 1557.45C1884.53 1554.17 1873.64 1560.92 1868.89 1572.53Z" fill="#F8F3E3"/>
<path d="M1825.04 1567.23C1815.7 1577.65 1814.04 1590.87 1821.34 1596.77C1828.63 1602.67 1842.12 1599.01 1851.46 1588.6C1860.8 1578.19 1862.46 1564.97 1855.17 1559.07C1847.87 1553.16 1834.39 1556.82 1825.04 1567.23Z" fill="#F8F3E3"/>
<path d="M1705.31 1378.58C1711.36 1379.53 1717.97 1382.1 1720.77 1387.88C1727.53 1401.79 1714.55 1413.76 1712.38 1427.43C1710.52 1439.12 1719.03 1456.28 1710.51 1465.95C1705.47 1471.66 1697.45 1472.85 1690.5 1471.77C1680.99 1470.28 1673.94 1462.69 1669.08 1452.36C1667.13 1448.19 1658.62 1442.57 1652.54 1436.28C1646.46 1429.99 1642.91 1422.69 1643.86 1416.75C1645.16 1408.54 1650.43 1403.33 1657.13 1400.06C1664.96 1396.23 1674.52 1394.84 1678.32 1391.16C1686.39 1383.32 1694.21 1376.85 1705.31 1378.58Z" fill="#F8F3E3"/>
<path d="M1632.11 1451.75C1619.41 1455.06 1611.23 1464.64 1613.82 1473.14C1616.41 1481.65 1628.8 1485.86 1641.49 1482.55C1654.19 1479.23 1662.38 1469.66 1659.78 1461.15C1657.19 1452.65 1644.8 1448.44 1632.11 1451.75Z" fill="#F8F3E3"/>
<path d="M1609.55 1415.54C1595.04 1414.67 1582.9 1421.27 1582.43 1430.27C1581.97 1439.28 1593.36 1447.28 1607.88 1448.15C1622.39 1449.02 1634.53 1442.42 1634.99 1433.42C1635.45 1424.41 1624.06 1416.41 1609.55 1415.54Z" fill="#F8F3E3"/>
<path d="M1632.73 1354.03C1627.62 1361.33 1632.44 1372.94 1643.49 1379.96C1654.55 1386.97 1667.64 1386.74 1672.75 1379.44C1677.85 1372.14 1673.03 1360.53 1661.98 1353.51C1650.93 1346.5 1637.83 1346.73 1632.73 1354.03Z" fill="#F8F3E3"/>
<path d="M1589.54 1385.27C1587.19 1393.98 1596.69 1403.95 1610.77 1407.55C1624.85 1411.14 1638.17 1407 1640.52 1398.29C1642.88 1389.58 1633.37 1379.61 1619.29 1376.01C1605.22 1372.41 1591.89 1376.56 1589.54 1385.27Z" fill="#F8F3E3"/>
<path d="M1546.37 1644.26C1551.95 1641.95 1557.6 1637.95 1558.66 1631.72C1561.21 1616.72 1545.25 1608.14 1539.23 1595.42C1534.1 1584.55 1537.42 1566.01 1526.42 1558.63C1519.92 1554.27 1511.82 1554.96 1505.42 1557.61C1496.64 1561.23 1492 1570.19 1490.27 1581.29C1489.57 1585.77 1482.95 1593.16 1478.87 1600.64C1474.79 1608.12 1473.46 1616 1476.07 1621.51C1479.68 1629.15 1486.26 1632.97 1493.66 1634.59C1502.33 1636.48 1511.97 1635.64 1516.69 1638.32C1526.74 1644.02 1536.15 1648.48 1546.37 1644.26Z" fill="#F8F3E3"/>
<path d="M1454.99 1558.35C1441.77 1558.06 1431 1564.98 1430.92 1573.8C1430.85 1582.61 1441.5 1589.99 1454.72 1590.27C1467.93 1590.55 1478.71 1583.64 1478.78 1574.82C1478.85 1566.01 1468.2 1558.63 1454.99 1558.35Z" fill="#F8F3E3"/>
<path d="M1432.24 1599.33C1418.47 1603.51 1409.74 1613.86 1412.76 1622.46C1415.78 1631.05 1429.4 1634.64 1443.18 1630.47C1456.96 1626.29 1465.69 1615.94 1462.66 1607.34C1459.64 1598.74 1446.02 1595.16 1432.24 1599.33Z" fill="#F8F3E3"/>
<path d="M1486.2 1657.02C1477.53 1666.35 1476.19 1678.68 1483.21 1684.56C1490.23 1690.45 1502.95 1687.66 1511.63 1678.34C1520.31 1669.01 1521.65 1656.68 1514.62 1650.8C1507.6 1644.91 1494.88 1647.7 1486.2 1657.02Z" fill="#F8F3E3"/>
<path d="M1446.71 1638.07C1434.13 1644.78 1427.8 1656.61 1432.56 1664.49C1437.33 1672.36 1451.39 1673.3 1463.97 1666.59C1476.55 1659.88 1482.88 1648.05 1478.12 1640.17C1473.35 1632.3 1459.29 1631.35 1446.71 1638.07Z" fill="#F8F3E3"/>
<path d="M1414.61 1401.28C1420.14 1403.82 1425.71 1408.08 1426.65 1414.35C1428.92 1429.46 1412.8 1437.33 1406.54 1449.77C1401.2 1460.4 1404.17 1479.09 1393.04 1485.97C1386.45 1490.04 1378.37 1488.99 1372.02 1486.06C1363.32 1482.05 1358.85 1472.88 1357.33 1461.71C1356.71 1457.2 1350.24 1449.54 1346.3 1441.86C1342.37 1434.18 1341.19 1426.26 1343.9 1420.87C1347.66 1413.39 1354.31 1409.87 1361.74 1408.58C1370.44 1407.07 1380.05 1408.35 1384.83 1405.88C1394.98 1400.62 1404.47 1396.6 1414.61 1401.28Z" fill="#F8F3E3"/>
<path d="M1321.94 1451.04C1308.72 1450.73 1297.93 1457.62 1297.84 1466.44C1297.75 1475.25 1308.38 1482.65 1321.6 1482.96C1334.81 1483.27 1345.6 1476.38 1345.7 1467.56C1345.79 1458.74 1335.15 1451.35 1321.94 1451.04Z" fill="#F8F3E3"/>
<path d="M1280.58 1416.97C1277.4 1425.43 1285.92 1436.17 1299.61 1440.96C1313.3 1445.75 1326.99 1442.78 1330.17 1434.32C1333.36 1425.86 1324.84 1415.12 1311.14 1410.33C1297.45 1405.54 1283.76 1408.51 1280.58 1416.97Z" fill="#F8F3E3"/>
<path d="M1352.27 1358.05C1345.14 1363.62 1346.24 1376 1354.73 1385.71C1363.23 1395.42 1375.89 1398.78 1383.03 1393.21C1390.16 1387.64 1389.05 1375.26 1380.56 1365.55C1372.07 1355.84 1359.4 1352.48 1352.27 1358.05Z" fill="#F8F3E3"/>
<path d="M1301.24 1376.04C1296.32 1383.7 1302.43 1395.81 1314.88 1403.08C1327.32 1410.35 1341.4 1410.04 1346.31 1402.38C1351.23 1394.72 1345.12 1382.61 1332.67 1375.34C1320.23 1368.07 1306.15 1368.38 1301.24 1376.04Z" fill="#F8F3E3"/>
<path d="M1180.91 1611.16C1186.98 1610.49 1193.63 1608.22 1196.54 1602.57C1203.56 1588.96 1190.8 1576.42 1188.91 1562.65C1187.27 1550.9 1196.11 1534.12 1187.77 1524.1C1182.85 1518.17 1174.85 1516.6 1167.88 1517.39C1158.35 1518.45 1151.15 1525.73 1146.11 1535.83C1144.07 1539.91 1135.46 1545.15 1129.26 1551.16C1123.06 1557.18 1119.38 1564.35 1120.21 1570.3C1121.36 1578.57 1126.53 1584 1133.16 1587.57C1140.92 1591.75 1150.44 1593.57 1154.17 1597.42C1162.1 1605.59 1169.8 1612.38 1180.91 1611.16Z" fill="#F8F3E3"/>
<path d="M1101.22 1511.33C1098.52 1519.68 1106.52 1529.53 1119.09 1533.34C1131.66 1537.15 1144.04 1533.47 1146.75 1525.12C1149.45 1516.77 1141.45 1506.91 1128.88 1503.1C1116.3 1499.29 1103.92 1502.98 1101.22 1511.33Z" fill="#F8F3E3"/>
<path d="M1084.81 1537.16C1070.29 1537.38 1058.75 1544.86 1059.04 1553.89C1059.33 1562.91 1071.34 1570.04 1085.86 1569.83C1100.38 1569.61 1111.92 1562.12 1111.63 1553.1C1111.34 1544.08 1099.34 1536.94 1084.81 1537.16Z" fill="#F8F3E3"/>
<path d="M1119.14 1606.88C1107.96 1613.4 1102.92 1624.79 1107.88 1632.32C1112.85 1639.85 1125.93 1640.66 1137.11 1634.14C1148.29 1627.62 1153.33 1616.24 1148.37 1608.71C1143.41 1601.18 1130.32 1600.36 1119.14 1606.88Z" fill="#F8F3E3"/>
<path d="M1082.5 1577.49C1068.31 1580.47 1058.6 1590.05 1060.79 1598.89C1062.99 1607.72 1076.27 1612.47 1090.45 1609.49C1104.64 1606.52 1114.35 1596.94 1112.16 1588.1C1109.96 1579.26 1096.68 1574.52 1082.5 1577.49Z" fill="#F8F3E3"/>
<path d="M1036.9 1332.98C1042.88 1334.27 1049.32 1337.2 1051.76 1343.12C1057.63 1357.38 1043.92 1368.58 1040.88 1382.09C1038.29 1393.64 1045.72 1411.24 1036.58 1420.39C1031.19 1425.8 1023.1 1426.54 1016.22 1425.06C1006.81 1423.05 1000.25 1415.07 996.051 1404.5C994.355 1400.23 986.206 1394.14 980.528 1387.53C974.851 1380.91 971.773 1373.42 973.089 1367.55C974.91 1359.44 980.5 1354.55 987.395 1351.67C995.467 1348.29 1005.1 1347.44 1009.12 1343.98C1017.7 1336.63 1025.92 1330.63 1036.9 1332.98Z" fill="#F8F3E3"/>
<path d="M959.157 1401.76C946.267 1404.34 937.483 1413.43 939.537 1422.06C941.592 1430.69 953.707 1435.59 966.596 1433C979.486 1430.42 988.27 1421.33 986.216 1412.7C984.161 1404.07 972.046 1399.18 959.157 1401.76Z" fill="#F8F3E3"/>
<path d="M938.753 1364.59C924.308 1362.91 911.765 1368.8 910.738 1377.76C909.711 1386.71 920.589 1395.34 935.034 1397.02C949.479 1398.71 962.022 1392.81 963.049 1383.86C964.076 1374.9 953.198 1366.28 938.753 1364.59Z" fill="#F8F3E3"/>
<path d="M965.897 1304.35C960.336 1311.34 964.421 1323.19 975.02 1330.81C985.619 1338.44 998.718 1338.95 1004.28 1331.95C1009.84 1324.96 1005.75 1313.11 995.156 1305.49C984.557 1297.86 971.457 1297.35 965.897 1304.35Z" fill="#F8F3E3"/>
<path d="M920.79 1333.08C917.89 1341.63 926.758 1352.11 940.598 1356.5C954.438 1360.88 968.008 1357.5 970.909 1348.95C973.809 1340.39 964.941 1329.91 951.101 1325.52C937.262 1321.14 923.691 1324.52 920.79 1333.08Z" fill="#F8F3E3"/>
<path d="M861.381 1588.96C867.096 1586.98 872.996 1583.31 874.438 1577.16C877.931 1562.34 862.518 1552.88 857.313 1539.86C852.865 1528.73 857.35 1510.42 846.829 1502.44C840.606 1497.72 832.478 1497.95 825.908 1500.23C816.916 1503.35 811.703 1512.02 809.282 1522.99C808.312 1527.43 801.219 1534.42 796.675 1541.65C792.132 1548.88 790.305 1556.66 792.562 1562.31C795.689 1570.13 802.022 1574.31 809.321 1576.34C817.864 1578.73 827.541 1578.43 832.091 1581.37C841.776 1587.64 850.902 1592.6 861.381 1588.96Z" fill="#F8F3E3"/>
<path d="M775.371 1498.3C762.185 1497.28 750.987 1503.57 750.359 1512.36C749.731 1521.15 759.91 1529.1 773.096 1530.13C786.281 1531.16 797.48 1524.87 798.108 1516.08C798.736 1507.29 788.556 1499.33 775.371 1498.3Z" fill="#F8F3E3"/>
<path d="M750.177 1537.65C736.147 1541.03 726.781 1550.87 729.257 1559.61C731.734 1568.36 745.115 1572.7 759.145 1569.32C773.175 1565.93 782.541 1556.1 780.065 1547.36C777.589 1538.61 764.207 1534.26 750.177 1537.65Z" fill="#F8F3E3"/>
<path d="M800.531 1598.49C791.278 1607.3 789.164 1619.52 795.811 1625.78C802.457 1632.05 815.346 1629.99 824.599 1621.18C833.852 1612.37 835.965 1600.15 829.319 1593.88C822.673 1587.62 809.784 1589.68 800.531 1598.49Z" fill="#F8F3E3"/>
<path d="M762.213 1577.16C749.222 1583.15 742.15 1594.59 746.416 1602.71C750.682 1610.84 764.672 1612.57 777.663 1606.58C790.654 1600.6 797.726 1589.16 793.46 1581.04C789.194 1572.91 775.204 1571.18 762.213 1577.16Z" fill="#F8F3E3"/>
<path d="M675.383 1357.52C681.498 1357.64 688.409 1359.3 692.043 1364.65C700.802 1377.55 689.774 1391.16 689.673 1405.02C689.589 1416.86 700.566 1432.74 693.598 1443.46C689.48 1449.8 681.731 1452.07 674.703 1451.93C665.083 1451.74 656.981 1445.14 650.644 1435.55C648.092 1431.68 638.837 1427.25 631.885 1421.84C624.934 1416.43 620.344 1409.64 620.388 1403.63C620.447 1395.31 624.875 1389.44 630.999 1385.3C638.154 1380.45 647.393 1377.78 650.596 1373.62C657.405 1364.75 664.171 1357.29 675.383 1357.52Z" fill="#F8F3E3"/>
<path d="M614.002 1439.83C601.96 1444.82 595.304 1455.42 599.138 1463.51C602.972 1471.6 615.842 1474.11 627.885 1469.12C639.928 1464.13 646.583 1453.53 642.749 1445.44C638.916 1437.36 626.045 1434.84 614.002 1439.83Z" fill="#F8F3E3"/>
<path d="M586.23 1407.23C571.764 1408.32 560.761 1416.5 561.654 1425.49C562.547 1434.49 574.998 1440.89 589.464 1439.8C603.93 1438.71 614.933 1430.54 614.04 1421.54C613.147 1412.55 600.696 1406.14 586.23 1407.23Z" fill="#F8F3E3"/>
<path d="M599.938 1342.85C595.988 1350.78 602.487 1361.65 614.454 1367.13C626.42 1372.6 639.324 1370.62 643.274 1362.69C647.224 1354.76 640.725 1343.89 628.758 1338.41C616.792 1332.94 603.888 1334.92 599.938 1342.85Z" fill="#F8F3E3"/>
<path d="M590.055 1366.46C575.609 1364.78 563.07 1370.68 562.048 1379.64C561.026 1388.59 571.908 1397.21 586.354 1398.89C600.8 1400.57 613.34 1394.67 614.362 1385.71C615.384 1376.76 604.501 1368.14 590.055 1366.46Z" fill="#F8F3E3"/>
<path d="M558.152 1642.4C563.316 1639.37 568.298 1634.64 568.414 1628.32C568.688 1613.1 551.632 1606.73 543.788 1594.92C537.075 1584.83 537.591 1565.99 525.626 1560.15C518.549 1556.68 510.652 1558.47 504.723 1561.95C496.6 1566.73 493.357 1576.24 493.299 1587.48C493.277 1592.02 487.845 1600.24 484.936 1608.2C482.027 1616.17 481.893 1624.17 485.292 1629.29C490.002 1636.38 497.075 1639.28 504.635 1639.9C513.483 1640.61 522.874 1638.48 527.928 1640.51C538.708 1644.82 548.689 1647.95 558.152 1642.4Z" fill="#F8F3E3"/>
<path d="M454.959 1569.66C441.862 1571.15 432.257 1579.46 433.504 1588.22C434.751 1596.97 446.379 1602.86 459.476 1601.36C472.572 1599.86 482.178 1591.55 480.931 1582.8C479.683 1574.04 468.055 1568.16 454.959 1569.66Z" fill="#F8F3E3"/>
<path d="M438.645 1613.07C425.658 1619.06 418.591 1630.5 422.862 1638.63C427.133 1646.75 441.123 1648.48 454.111 1642.49C467.098 1636.49 474.164 1625.05 469.894 1616.93C465.623 1608.81 451.633 1607.08 438.645 1613.07Z" fill="#F8F3E3"/>
<path d="M500.736 1663.31C493.563 1673.72 494.087 1686.13 501.905 1691.03C509.724 1695.92 521.876 1691.44 529.049 1681.03C536.221 1670.61 535.698 1658.21 527.88 1653.31C520.061 1648.42 507.909 1652.89 500.736 1663.31Z" fill="#F8F3E3"/>
<path d="M458.792 1649.63C447.37 1657.98 442.884 1670.56 448.771 1677.74C454.659 1684.91 468.69 1683.96 480.112 1675.61C491.534 1667.26 496.02 1654.67 490.132 1647.5C484.245 1640.33 470.213 1641.28 458.792 1649.63Z" fill="#F8F3E3"/>
<path d="M324.211 1452.52C330.238 1451.63 337.334 1452.12 341.892 1456.8C352.877 1468.07 344.565 1483.34 347.029 1497.03C349.137 1508.73 362.857 1522.59 357.997 1534.33C355.124 1541.28 347.934 1544.79 341.008 1545.82C331.526 1547.22 322.345 1542.07 314.35 1533.65C311.122 1530.25 301.22 1527.42 293.395 1523.21C285.571 1519.01 279.792 1513.08 278.738 1507.15C277.255 1498.92 280.517 1492.4 285.764 1487.29C291.919 1481.31 300.475 1477.14 302.845 1472.52C307.893 1462.64 313.158 1454.15 324.211 1452.52Z" fill="#F8F3E3"/>
<path d="M279.258 1544.25C268.356 1551.17 263.784 1562.74 269.046 1570.09C274.307 1577.43 287.411 1577.78 298.312 1570.85C309.214 1563.93 313.786 1552.36 308.525 1545.01C303.263 1537.66 290.16 1537.32 279.258 1544.25Z" fill="#F8F3E3"/>
<path d="M245.875 1516.37C231.871 1519.85 222.579 1529.74 225.119 1538.47C227.66 1547.2 241.071 1551.46 255.075 1547.98C269.078 1544.5 278.371 1534.61 275.83 1525.88C273.29 1517.15 259.878 1512.89 245.875 1516.37Z" fill="#F8F3E3"/>
<path d="M247.344 1450.54C244.931 1459.02 253.323 1468.67 266.087 1472.09C278.852 1475.51 291.155 1471.41 293.567 1462.93C295.979 1454.44 287.588 1444.8 274.823 1441.37C262.059 1437.95 249.756 1442.06 247.344 1450.54Z" fill="#F8F3E3"/>
<path d="M242.079 1475.45C227.583 1476.19 216.361 1484.1 217.014 1493.11C217.667 1502.12 229.947 1508.82 244.443 1508.08C258.939 1507.33 270.161 1499.43 269.508 1490.42C268.855 1481.41 256.574 1474.71 242.079 1475.45Z" fill="#F8F3E3"/>
<path d="M147.011 1698.47C134.427 1702.12 126.532 1711.92 129.376 1720.36C132.22 1728.79 144.727 1732.67 157.31 1729.02C169.894 1725.37 177.79 1715.57 174.946 1707.14C172.102 1698.7 159.595 1694.82 147.011 1698.47Z" fill="#F8F3E3"/>
<path d="M139.158 1744.35C127.514 1752.42 122.694 1764.89 128.391 1772.19C134.089 1779.5 148.147 1778.88 159.79 1770.81C171.434 1762.74 176.254 1750.27 170.557 1742.96C164.859 1735.66 150.802 1736.27 139.158 1744.35Z" fill="#F8F3E3"/>
</g>
<defs>
<filter id="filter0_f_1_3396" x="-2.00002" y="-2" width="2189.45" height="1357.21" filterUnits="userSpaceOnUse" color-interpolation-filters="sRGB">
<feFlood flood-opacity="0" result="BackgroundImageFix"/>
<feBlend mode="normal" in="SourceGraphic" in2="BackgroundImageFix" result="shape"/>
<feGaussianBlur stdDeviation="1" result="effect1_foregroundBlur_1_3396"/>
</filter>
<filter id="filter1_f_1_3396" x="115.339" y="786.279" width="2162.53" height="1285.99" filterUnits="userSpaceOnUse" color-interpolation-filters="sRGB">
<feFlood flood-opacity="0" result="BackgroundImageFix"/>
<feBlend mode="normal" in="SourceGraphic" in2="BackgroundImageFix" result="shape"/>
<feGaussianBlur stdDeviation="1" result="effect1_foregroundBlur_1_3396"/>
</filter>
<clipPath id="clip0_1_3396">
<rect width="2042" height="1023" fill="white" transform="translate(172.791) rotate(9.72425)"/>
</clipPath>
<clipPath id="clip1_1_3396">
<rect width="2042" height="1023" fill="white" transform="translate(2141.7 2070.27) rotate(-172.464)"/>
</clipPath>
</defs>
</svg>
