<svg width="46" height="46" viewBox="0 0 46 46" fill="none" xmlns="http://www.w3.org/2000/svg">
<g clip-path="url(#clip0_1_147)">
<path d="M0.000976562 0H46.001V46H0.000976562V0Z" fill="#FF0000"/>
<path d="M16.296 25.1499C16.7448 24.2107 16.6953 22.9872 16.1555 21.7047C15.2019 19.4366 13.5584 18.1413 12.1608 18.5534C10.7648 18.9654 10.1946 20.8773 10.7425 23.3099C11.038 24.6244 11.7184 25.6498 12.6591 26.1961C13.1096 26.458 13.5919 26.5922 14.0631 26.5922C14.2963 26.5922 14.5263 26.5602 14.7483 26.4931C15.4271 26.2935 15.9766 25.8159 16.296 25.1499Z" fill="white"/>
<path d="M17.1376 19.4222C17.6966 19.9317 18.3722 20.2049 19.059 20.2049C19.1325 20.2049 19.206 20.2017 19.2779 20.1953C20.0445 20.1314 20.7393 19.7433 21.2361 19.1044C21.9293 18.2115 22.1672 16.9114 21.9069 15.4451C21.4421 12.8385 20.019 11.1119 18.4441 11.2444C16.8756 11.377 15.8183 13.2729 15.8135 15.9594C15.8103 17.4113 16.2799 18.6396 17.1376 19.4222Z" fill="white"/>
<path d="M33.9259 18.5534C32.5284 18.1413 30.8848 19.4366 29.9313 21.7047C29.3914 22.9872 29.3419 24.2107 29.7907 25.1499C30.1102 25.8159 30.6596 26.2935 31.3384 26.4931C31.5604 26.5602 31.7904 26.5922 32.0236 26.5922C32.4948 26.5922 32.9772 26.458 33.4276 26.1961C34.3668 25.6498 35.0488 24.6244 35.3443 23.3099C35.8921 20.8773 35.3219 18.9654 33.9259 18.5534Z" fill="white"/>
<path d="M26.809 20.1953C26.8808 20.2017 26.9543 20.2049 27.0262 20.2049C27.7146 20.2049 28.3902 19.9317 28.9492 19.4222C29.807 18.6396 30.2765 17.4113 30.2733 15.9594C30.2686 13.2729 29.2112 11.377 27.6427 11.2444C26.0695 11.1119 24.6447 12.8385 24.1799 15.4451C23.9196 16.9114 24.1576 18.2115 24.8508 19.1044C25.3475 19.7433 26.0423 20.1314 26.809 20.1953Z" fill="white"/>
<path d="M28.981 27.2247C27.1234 25.867 26.3647 23.7891 26.3567 23.7683L26.3535 23.7587C25.3105 21.2175 23.4114 21.1153 23.0473 21.1217C22.6767 21.1153 20.7776 21.2175 19.733 23.7619C19.7251 23.7843 18.8322 26.0092 17.1088 27.2231C15.7096 28.207 14.4814 30.0725 15.2305 32.3534C15.2528 32.4284 15.494 33.2143 16.2 33.8835C17.4171 35.0335 19.0191 34.9121 20.1483 34.6055L20.1547 34.6039C20.1659 34.6007 21.2632 34.2573 22.2343 34.0145C22.7646 33.8803 23.3236 33.8803 23.8539 34.0145C24.825 34.2573 25.9223 34.6007 25.9319 34.6039L25.9399 34.6055C26.4877 34.754 26.978 34.8163 27.4141 34.8163C28.6056 34.8163 29.3962 34.3483 29.8882 33.8835C30.5942 33.2143 30.8353 32.4284 30.8577 32.3534C31.7809 29.5407 29.655 27.7166 28.981 27.2247Z" fill="white"/>
<path d="M23.0012 30C20.0012 30 19.0012 28.5001 18.5012 29C18.0012 29.4999 19.8012 32 23.0012 32C26.2012 32 28.0012 29.5 27.5012 29C27.0012 28.5 26.0012 30 23.0012 30Z" fill="#FF0000"/>
</g>
<defs>
<clipPath id="clip0_1_147">
<rect x="0.000976562" width="46" height="46" rx="7" fill="white"/>
</clipPath>
</defs>
</svg>
