<svg width="129" height="15" viewBox="0 0 129 15" fill="none" xmlns="http://www.w3.org/2000/svg">
<path d="M124.348 14.6433C123.581 14.6433 122.825 14.5612 122.08 14.3968C121.334 14.2324 120.732 14.0187 120.271 13.7557L121.291 11.3066C121.718 11.5586 122.211 11.7559 122.77 11.8983C123.34 12.0408 123.893 12.112 124.43 12.112C124.879 12.112 125.181 12.0736 125.334 11.9969C125.499 11.9202 125.581 11.8161 125.581 11.6846C125.581 11.5531 125.488 11.46 125.301 11.4052C125.115 11.3394 124.868 11.2901 124.562 11.2573C124.255 11.2244 123.915 11.186 123.543 11.1422C123.181 11.0874 122.814 11.0107 122.441 10.9121C122.069 10.8134 121.729 10.6655 121.422 10.4683C121.115 10.271 120.869 10.008 120.682 9.67927C120.496 9.33956 120.403 8.91219 120.403 8.39715C120.403 7.82732 120.573 7.31229 120.913 6.85204C121.263 6.39179 121.778 6.02469 122.458 5.75074C123.148 5.46582 123.997 5.32336 125.005 5.32336C125.663 5.32336 126.32 5.38363 126.978 5.50418C127.635 5.62472 128.2 5.81101 128.671 6.06305L127.652 8.51221C127.192 8.26017 126.737 8.09032 126.288 8.00265C125.849 7.90403 125.438 7.85472 125.055 7.85472C124.584 7.85472 124.26 7.89855 124.085 7.98622C123.921 8.07388 123.838 8.17251 123.838 8.28209C123.838 8.41359 123.932 8.51221 124.118 8.57796C124.304 8.64371 124.551 8.69302 124.858 8.7259C125.164 8.75877 125.499 8.80261 125.86 8.8574C126.233 8.90123 126.6 8.97794 126.961 9.08752C127.334 9.18614 127.674 9.33408 127.981 9.53133C128.287 9.72858 128.534 9.99705 128.72 10.3368C128.907 10.6655 129 11.0874 129 11.6024C129 12.1394 128.83 12.6435 128.49 13.1147C128.15 13.5749 127.635 13.9475 126.945 14.2324C126.255 14.5064 125.389 14.6433 124.348 14.6433Z" fill="#FF0000"/>
<path d="M115.056 14.6433C113.96 14.6433 113.001 14.4406 112.179 14.0352C111.369 13.6297 110.738 13.0763 110.289 12.375C109.84 11.6627 109.615 10.8628 109.615 9.97514C109.615 9.0656 109.834 8.26017 110.273 7.55885C110.722 6.85752 111.33 6.30961 112.097 5.91511C112.875 5.52061 113.746 5.32336 114.711 5.32336C115.598 5.32336 116.415 5.4987 117.16 5.84936C117.916 6.20002 118.519 6.72054 118.968 7.41091C119.428 8.10128 119.658 8.95602 119.658 9.97514C119.658 10.1066 119.653 10.2546 119.642 10.4189C119.631 10.5724 119.62 10.7148 119.609 10.8463H112.689V9.05465H117.637L116.239 9.53133C116.239 9.18067 116.174 8.88479 116.042 8.64371C115.922 8.39167 115.752 8.1999 115.533 8.0684C115.314 7.92595 115.051 7.85472 114.744 7.85472C114.437 7.85472 114.168 7.92595 113.938 8.0684C113.719 8.1999 113.549 8.39167 113.429 8.64371C113.308 8.88479 113.248 9.18067 113.248 9.53133V10.0902C113.248 10.4737 113.325 10.8025 113.478 11.0764C113.631 11.3504 113.851 11.5586 114.136 11.7011C114.42 11.8326 114.766 11.8983 115.171 11.8983C115.587 11.8983 115.927 11.8435 116.19 11.7339C116.464 11.6244 116.749 11.46 117.045 11.2408L118.985 13.1969C118.546 13.6681 118.004 14.0297 117.357 14.2817C116.722 14.5228 115.955 14.6433 115.056 14.6433Z" fill="#FF0000"/>
<path d="M104.893 14.6433C103.863 14.6433 102.948 14.4461 102.148 14.0516C101.348 13.6571 100.718 13.1092 100.258 12.4079C99.8086 11.6956 99.584 10.8847 99.584 9.97514C99.584 9.0656 99.8086 8.26017 100.258 7.55885C100.718 6.85752 101.348 6.30961 102.148 5.91511C102.948 5.52061 103.863 5.32336 104.893 5.32336C105.989 5.32336 106.926 5.55897 107.704 6.03017C108.482 6.50138 109.019 7.15339 109.315 7.98622L106.438 9.39983C106.252 8.98342 106.022 8.68207 105.748 8.49578C105.485 8.30949 105.195 8.21634 104.877 8.21634C104.603 8.21634 104.345 8.28209 104.104 8.41359C103.874 8.54509 103.688 8.74234 103.545 9.00533C103.414 9.25737 103.348 9.58064 103.348 9.97514C103.348 10.3696 103.414 10.6984 103.545 10.9614C103.688 11.2244 103.874 11.4216 104.104 11.5531C104.345 11.6846 104.603 11.7504 104.877 11.7504C105.195 11.7504 105.485 11.6572 105.748 11.4709C106.022 11.2846 106.252 10.9833 106.438 10.5669L109.315 11.9805C109.019 12.8133 108.482 13.4653 107.704 13.9365C106.926 14.4077 105.989 14.6433 104.893 14.6433Z" fill="#FF0000"/>
<path d="M94.6984 14.479V5.48772H98.4132V14.479H94.6984ZM96.5558 4.76448C95.8764 4.76448 95.334 4.58367 94.9285 4.22205C94.523 3.86043 94.3203 3.41114 94.3203 2.87418C94.3203 2.33723 94.523 1.88794 94.9285 1.52632C95.334 1.1647 95.8764 0.983887 96.5558 0.983887C97.2352 0.983887 97.7776 1.15374 98.1831 1.49345C98.5885 1.83315 98.7913 2.27148 98.7913 2.80843C98.7913 3.37826 98.5885 3.84947 98.1831 4.22205C97.7776 4.58367 97.2352 4.76448 96.5558 4.76448Z" fill="#FF0000"/>
<path d="M89.3379 14.4791V2.28259H93.0527V14.4791H89.3379Z" fill="#FF0000"/>
<path d="M83.5619 14.6433C82.466 14.6433 81.5072 14.4406 80.6853 14.0352C79.8744 13.6297 79.2443 13.0763 78.795 12.375C78.3457 11.6627 78.1211 10.8628 78.1211 9.97514C78.1211 9.0656 78.3403 8.26017 78.7786 7.55885C79.2279 6.85752 79.8361 6.30961 80.6031 5.91511C81.3812 5.52061 82.2524 5.32336 83.2167 5.32336C84.1043 5.32336 84.9207 5.4987 85.6658 5.84936C86.422 6.20002 87.0247 6.72054 87.4739 7.41091C87.9342 8.10128 88.1643 8.95602 88.1643 9.97514C88.1643 10.1066 88.1588 10.2546 88.1479 10.4189C88.1369 10.5724 88.126 10.7148 88.115 10.8463H81.1949V9.05465H86.1425L84.7453 9.53133C84.7453 9.18067 84.6796 8.88479 84.5481 8.64371C84.4276 8.39167 84.2577 8.1999 84.0385 8.0684C83.8194 7.92595 83.5564 7.85472 83.2496 7.85472C82.9427 7.85472 82.6742 7.92595 82.4441 8.0684C82.225 8.1999 82.0551 8.39167 81.9346 8.64371C81.814 8.88479 81.7537 9.18067 81.7537 9.53133V10.0902C81.7537 10.4737 81.8305 10.8025 81.9839 11.0764C82.1373 11.3504 82.3565 11.5586 82.6414 11.7011C82.9263 11.8326 83.2715 11.8983 83.6769 11.8983C84.0933 11.8983 84.433 11.8435 84.696 11.7339C84.97 11.6244 85.2549 11.46 85.5508 11.2408L87.4904 13.1969C87.0521 13.6681 86.5096 14.0297 85.8631 14.2817C85.2275 14.5228 84.4604 14.6433 83.5619 14.6433Z" fill="#FF0000"/>
<path d="M71.9131 7.87123H76.9758V10.7971H71.9131V7.87123ZM72.1761 14.4791H68.2969V2.9729H77.6497V5.89875H72.1761V14.4791Z" fill="#FF0000"/>
<path d="M57.4759 14.6433C56.7088 14.6433 55.9527 14.5612 55.2075 14.3968C54.4624 14.2324 53.8597 14.0187 53.3994 13.7557L54.4185 11.3066C54.8459 11.5586 55.339 11.7559 55.8979 11.8983C56.4677 12.0408 57.0211 12.112 57.5581 12.112C58.0074 12.112 58.3087 12.0736 58.4621 11.9969C58.6265 11.9202 58.7087 11.8161 58.7087 11.6846C58.7087 11.5531 58.6155 11.46 58.4292 11.4052C58.243 11.3394 57.9964 11.2901 57.6896 11.2573C57.3827 11.2244 57.043 11.186 56.6704 11.1422C56.3088 11.0874 55.9417 11.0107 55.5691 10.9121C55.1966 10.8134 54.8569 10.6655 54.55 10.4683C54.2432 10.271 53.9966 10.008 53.8103 9.67927C53.6241 9.33956 53.5309 8.91219 53.5309 8.39715C53.5309 7.82732 53.7008 7.31229 54.0405 6.85204C54.3911 6.39179 54.9062 6.02469 55.5856 5.75074C56.276 5.46582 57.1252 5.32336 58.1334 5.32336C58.7909 5.32336 59.4484 5.38363 60.1059 5.50418C60.7634 5.62472 61.3277 5.81101 61.7989 6.06305L60.7798 8.51221C60.3195 8.26017 59.8648 8.09032 59.4155 8.00265C58.9772 7.90403 58.5662 7.85472 58.1827 7.85472C57.7115 7.85472 57.3882 7.89855 57.2129 7.98622C57.0485 8.07388 56.9663 8.17251 56.9663 8.28209C56.9663 8.41359 57.0595 8.51221 57.2458 8.57796C57.432 8.64371 57.6786 8.69302 57.9854 8.7259C58.2923 8.75877 58.6265 8.80261 58.9881 8.8574C59.3607 8.90123 59.7278 8.97794 60.0894 9.08752C60.462 9.18614 60.8017 9.33408 61.1085 9.53133C61.4154 9.72858 61.6619 9.99705 61.8482 10.3368C62.0345 10.6655 62.1277 11.0874 62.1277 11.6024C62.1277 12.1394 61.9578 12.6435 61.6181 13.1147C61.2784 13.5749 60.7634 13.9475 60.073 14.2324C59.3826 14.5064 58.5169 14.6433 57.4759 14.6433Z" fill="#FF0000"/>
<path d="M48.9022 14.479V12.8846L48.6392 12.4572V9.4327C48.6392 8.99437 48.5022 8.66015 48.2282 8.43003C47.9652 8.1999 47.5324 8.08484 46.9297 8.08484C46.5242 8.08484 46.1133 8.15059 45.6969 8.28209C45.2805 8.40263 44.9243 8.57248 44.6284 8.79165L43.4449 6.34248C43.9709 6.01373 44.601 5.76169 45.3352 5.58636C46.0694 5.41103 46.7872 5.32336 47.4885 5.32336C49.0336 5.32336 50.2281 5.66855 51.0719 6.35892C51.9266 7.04929 52.354 8.14511 52.354 9.64639V14.479H48.9022ZM46.3544 14.6433C45.6202 14.6433 45.0065 14.5173 44.5134 14.2653C44.0203 14.0132 43.6477 13.679 43.3956 13.2626C43.1436 12.8352 43.0176 12.364 43.0176 11.849C43.0176 11.2682 43.1655 10.7751 43.4614 10.3696C43.7573 9.96418 44.2065 9.65735 44.8092 9.44914C45.4229 9.24094 46.1955 9.13683 47.1269 9.13683H49.0008V10.9285H47.7187C47.3242 10.9285 47.0338 10.9943 46.8475 11.1258C46.6721 11.2463 46.5845 11.4326 46.5845 11.6846C46.5845 11.8928 46.6612 12.0682 46.8146 12.2106C46.979 12.3421 47.1981 12.4079 47.4721 12.4079C47.7241 12.4079 47.9543 12.3421 48.1625 12.2106C48.3816 12.0682 48.5405 11.849 48.6392 11.5531L49.1158 12.6544C48.9734 13.3229 48.672 13.8215 48.2118 14.1502C47.7515 14.479 47.1324 14.6433 46.3544 14.6433Z" fill="#FF0000"/>
<path d="M40.2395 14.6433C39.0012 14.6433 38.0368 14.3475 37.3465 13.7557C36.6561 13.153 36.3109 12.2325 36.3109 10.9943V3.46594H40.0258V10.9614C40.0258 11.2353 40.097 11.449 40.2395 11.6024C40.3929 11.7559 40.5792 11.8326 40.7983 11.8326C41.1161 11.8326 41.3956 11.7504 41.6366 11.586L42.5243 14.1667C42.2393 14.331 41.8941 14.4516 41.4887 14.5283C41.0942 14.605 40.6778 14.6433 40.2395 14.6433ZM35.0781 8.69302V5.98086H41.8668V8.69302H35.0781Z" fill="#FF0000"/>
<path d="M30.5382 14.479V5.48772H34.2531V14.479H30.5382ZM32.3956 4.76448C31.7162 4.76448 31.1738 4.58367 30.7683 4.22205C30.3629 3.86043 30.1602 3.41114 30.1602 2.87418C30.1602 2.33723 30.3629 1.88794 30.7683 1.52632C31.1738 1.1647 31.7162 0.983887 32.3956 0.983887C33.075 0.983887 33.6175 1.15374 34.0229 1.49345C34.4284 1.83315 34.6311 2.27148 34.6311 2.80843C34.6311 3.37826 34.4284 3.84947 34.0229 4.22205C33.6175 4.58367 33.075 4.76448 32.3956 4.76448Z" fill="#FF0000"/>
<path d="M27.3176 14.6433C26.0793 14.6433 25.115 14.3475 24.4246 13.7557C23.7342 13.153 23.3891 12.2325 23.3891 10.9943V3.46594H27.1039V10.9614C27.1039 11.2353 27.1751 11.449 27.3176 11.6024C27.471 11.7559 27.6573 11.8326 27.8765 11.8326C28.1942 11.8326 28.4737 11.7504 28.7148 11.586L29.6024 14.1667C29.3175 14.331 28.9723 14.4516 28.5668 14.5283C28.1723 14.605 27.7559 14.6433 27.3176 14.6433ZM22.1562 8.69302V5.98086H28.9449V8.69302H22.1562Z" fill="#FF0000"/>
<path d="M17.9207 14.479V12.8846L17.6577 12.4572V9.4327C17.6577 8.99437 17.5207 8.66015 17.2468 8.43003C16.9838 8.1999 16.5509 8.08484 15.9482 8.08484C15.5428 8.08484 15.1318 8.15059 14.7154 8.28209C14.299 8.40263 13.9429 8.57248 13.647 8.79165L12.4635 6.34248C12.9895 6.01373 13.6196 5.76169 14.3538 5.58636C15.088 5.41103 15.8058 5.32336 16.5071 5.32336C18.0522 5.32336 19.2467 5.66855 20.0904 6.35892C20.9452 7.04929 21.3726 8.14511 21.3726 9.64639V14.479H17.9207ZM15.3729 14.6433C14.6387 14.6433 14.0251 14.5173 13.5319 14.2653C13.0388 14.0132 12.6662 13.679 12.4142 13.2626C12.1622 12.8352 12.0361 12.364 12.0361 11.849C12.0361 11.2682 12.1841 10.7751 12.4799 10.3696C12.7758 9.96418 13.2251 9.65735 13.8278 9.44914C14.4415 9.24094 15.214 9.13683 16.1455 9.13683H18.0193V10.9285H16.7372C16.3427 10.9285 16.0523 10.9943 15.866 11.1258C15.6907 11.2463 15.603 11.4326 15.603 11.6846C15.603 11.8928 15.6797 12.0682 15.8332 12.2106C15.9975 12.3421 16.2167 12.4079 16.4907 12.4079C16.7427 12.4079 16.9728 12.3421 17.181 12.2106C17.4002 12.0682 17.5591 11.849 17.6577 11.5531L18.1344 12.6544C17.9919 13.3229 17.6906 13.8215 17.2303 14.1502C16.7701 14.479 16.151 14.6433 15.3729 14.6433Z" fill="#FF0000"/>
<path d="M0.620117 14.4791V2.9729H6.15951C7.23342 2.9729 8.15939 3.14823 8.93742 3.4989C9.72642 3.84956 10.3346 4.35364 10.762 5.01113C11.1893 5.65767 11.403 6.42475 11.403 7.31236C11.403 8.19998 11.1893 8.96706 10.762 9.61359C10.3346 10.2601 9.72642 10.7642 8.93742 11.1258C8.15939 11.4765 7.23342 11.6518 6.15951 11.6518H2.77341L4.49933 9.99165V14.4791H0.620117ZM4.49933 10.419L2.77341 8.66023H5.91295C6.4499 8.66023 6.8444 8.53969 7.09644 8.29861C7.35944 8.05752 7.49093 7.72878 7.49093 7.31236C7.49093 6.89595 7.35944 6.5672 7.09644 6.32612C6.8444 6.08504 6.4499 5.9645 5.91295 5.9645H2.77341L4.49933 4.2057V10.419Z" fill="#FF0000"/>
</svg>
